<svg xmlns="http://www.w3.org/2000/svg" viewBox="0 0 63 63"><g data-name="Groupe 560" transform="translate(-1179 -4980)"><circle data-name="Ellipse 265" cx="31.5" cy="31.5" r="31.5" transform="translate(1179 4980)" fill="#e50041"/><path data-name="Union 2" d="M1197.367 5022.754a17.929 17.929 0 01-4.366-11.754 18 18 0 0118-18 18 18 0 0118 18 18 18 0 01-18 18 17.929 17.929 0 01-7.541-1.651l-7.17 1.933s.361-1.328 1.077-6.528z" fill="#fff"/><g data-name="Groupe 549" transform="translate(-3 -4)" fill="#e50041"><circle data-name="Ellipse 267" cx="3" cy="3" r="3" transform="translate(1203 5012)"/><circle data-name="Ellipse 269" cx="3" cy="3" r="3" transform="translate(1211 5012)"/><circle data-name="Ellipse 270" cx="3" cy="3" r="3" transform="translate(1219 5012)"/></g></g></svg>
