<svg xmlns="http://www.w3.org/2000/svg" viewBox="0 0 459 297"><defs><clipPath id="a"><path data-name="Rectangle 1198" transform="translate(709 567)" fill="#fff" stroke="#707070" d="M0 0h459v297H0z"/></clipPath></defs><g data-name="Groupe de masques 5" transform="translate(-709 -567)" clip-path="url(#a)"><g data-name="Groupe 914" stroke-dasharray="0 8" stroke="#ad002d" stroke-linecap="round" stroke-linejoin="round" stroke-miterlimit="10" stroke-width="3" fill="none"><path data-name="Ligne 19" d="M1253.041 589.22h-220.18"/><path data-name="Ligne 20" d="M1127.675 904.211H987.486"/><g data-name="Groupe 661"><path data-name="Ligne 21" d="M1317.825 604.169h-306.266"/><path data-name="Ligne 22" d="M1345.206 619.102h-266.678"/><path data-name="Ligne 23" d="M1371.496 634.036h-345.5"/><path data-name="Ligne 24" d="M1381.315 648.985h-374.913"/><path data-name="Ligne 25" d="M1236.248 663.918H965.814"/><path data-name="Ligne 26" d="M1149.792 678.851H965.814"/><path data-name="Ligne 27" d="M1142.573 693.8H965.814"/><path data-name="Ligne 28" d="M1173.526 708.734H965.814"/><path data-name="Ligne 29" d="M1164.599 723.683H983.715"/><path data-name="Ligne 30" d="M1157.981 738.616h-125.12"/><path data-name="Ligne 31" d="M1128.752 874.328H867.091"/><path data-name="Ligne 32" d="M1128.752 857.07H867.091"/><path data-name="Ligne 33" d="M1171.587 839.811H920.516"/><path data-name="Ligne 34" d="M1190.319 822.552H920.516"/><path data-name="Ligne 35" d="M1274.574 805.294H850.468"/><path data-name="Ligne 36" d="M1274.574 788.019H850.468"/><path data-name="Ligne 37" d="M1274.574 770.76h-412.1"/><path data-name="Ligne 38" d="M1236.109 753.502H920.516"/><path data-name="Ligne 39" d="M1123.35 889.277H942.973"/><path data-name="Ligne 40" d="M1086.979 919.144h-99.493"/></g></g></g></svg>
