<svg xmlns="http://www.w3.org/2000/svg" viewBox="0 0 465.683 282.791"><g data-name="Groupe 704" stroke-dasharray="0 8" stroke="#194353" stroke-linecap="round" stroke-linejoin="round" stroke-miterlimit="10" stroke-width="3" fill="none"><path data-name="Ligne 19" d="M352.379 1.5H160.472"/><path data-name="Ligne 20" d="M243.111 268.627H120.924"/><g data-name="Groupe 661"><path data-name="Ligne 21" d="M408.844 14.178H141.905"/><path data-name="Ligne 22" d="M432.711 26.842H200.276"/><path data-name="Ligne 23" d="M455.624 39.506H154.489"/><path data-name="Ligne 24" d="M464.183 52.184H137.411"/><path data-name="Ligne 25" d="M337.743 64.848H102.035"/><path data-name="Ligne 26" d="M262.389 77.512H102.035"/><path data-name="Ligne 27" d="M256.097 90.19H102.035"/><path data-name="Ligne 28" d="M283.076 102.854H102.035"/><path data-name="Ligne 29" d="M275.295 115.531H117.637"/><path data-name="Ligne 30" d="M269.526 128.195H160.472"/><path data-name="Ligne 31" d="M244.051 243.286H15.989"/><path data-name="Ligne 32" d="M244.051 228.65H15.989"/><path data-name="Ligne 33" d="M281.385 214.014H62.553"/><path data-name="Ligne 34" d="M297.711 199.377H62.553"/><path data-name="Ligne 35" d="M371.148 184.741H1.5"/><path data-name="Ligne 36" d="M371.148 170.092H1.5"/><path data-name="Ligne 37" d="M371.148 155.455H11.964"/><path data-name="Ligne 38" d="M337.622 140.819H62.553"/><path data-name="Ligne 39" d="M239.341 255.964H82.126"/><path data-name="Ligne 40" d="M207.641 281.292h-86.717"/></g></g></svg>
