<svg xmlns="http://www.w3.org/2000/svg" viewBox="0 0 459 297"><defs><clipPath id="a"><path data-name="Rectangle 1200" transform="translate(709 567)" fill="#fff" stroke="#796863" d="M0 0h459v297H0z"/></clipPath></defs><g data-name="Groupe de masques 6" transform="translate(-709 -567)" clip-path="url(#a)"><g data-name="Groupe 922" stroke-dasharray="0 8" stroke="#848484" stroke-linecap="round" stroke-linejoin="round" stroke-miterlimit="10" stroke-width="3" fill="none"><path data-name="Ligne 144" d="M1253.041 589.22h-220.18"/><path data-name="Ligne 145" d="M1127.675 904.211H987.486"/><g data-name="Groupe 921"><path data-name="Ligne 146" d="M1317.825 604.169h-306.266"/><path data-name="Ligne 147" d="M1345.206 619.102h-266.678"/><path data-name="Ligne 148" d="M1371.496 634.036h-345.5"/><path data-name="Ligne 149" d="M1381.315 648.985h-374.913"/><path data-name="Ligne 150" d="M1236.248 663.918H965.814"/><path data-name="Ligne 151" d="M1149.792 678.851H965.814"/><path data-name="Ligne 152" d="M1142.573 693.8H965.814"/><path data-name="Ligne 153" d="M1173.526 708.734H965.814"/><path data-name="Ligne 154" d="M1164.599 723.683H983.715"/><path data-name="Ligne 155" d="M1157.981 738.616h-125.12"/><path data-name="Ligne 156" d="M1128.752 874.328H867.091"/><path data-name="Ligne 157" d="M1128.752 857.07H867.091"/><path data-name="Ligne 158" d="M1171.587 839.811H920.516"/><path data-name="Ligne 159" d="M1190.319 822.552H920.516"/><path data-name="Ligne 160" d="M1274.574 805.294H850.468"/><path data-name="Ligne 161" d="M1274.574 788.019H850.468"/><path data-name="Ligne 162" d="M1274.574 770.76h-412.1"/><path data-name="Ligne 163" d="M1236.109 753.502H920.516"/><path data-name="Ligne 164" d="M1123.35 889.277H942.973"/><path data-name="Ligne 165" d="M1086.979 919.144h-99.493"/></g></g></g></svg>
