<svg xmlns="http://www.w3.org/2000/svg" viewBox="0 0 224.019 224.019"><g data-name="Groupe 614"><g data-name="Groupe 611"><g data-name="Groupe 602"><path data-name="Rectangle 1137" fill="#001821" d="M0 0h224.019v224.019H0z"/></g><g data-name="Groupe 610"><g data-name="Groupe 609"><g data-name="Groupe 606"><g data-name="Groupe 604"><g data-name="Groupe 603" fill="#fff"><path data-name="Tracé 511" d="M136.451 151.483l-1.2 4.236h-16.156v-.143l2-2.066c4.993-5.131 9.47-10.435 9.47-15.635 0-3.582-2.238-5.338-5.028-5.338-2.031 0-4.1 1-5.785 3.444l-.448-.207a9.988 9.988 0 018.954-5.545c4.132 0 7.783 2.239 7.783 6.854 0 4.925-4.546 8.747-12.914 15.084h2.273a74.748 74.748 0 0011.051-.684z"/><path data-name="Tracé 512" d="M139.061 143.459c0-8.506 4.064-13.225 10.5-13.225 5.993 0 10.538 4.3 10.538 12.674 0 8.506-4.132 13.224-10.572 13.224-5.959 0-10.466-4.304-10.466-12.673zm15.531-.138c0-7.438-1.584-12.6-5.1-12.6-3.478 0-4.924 5.1-4.924 12.295 0 7.473 1.584 12.638 5.1 12.638 3.478-.004 4.924-5.101 4.924-12.333z"/></g><path data-name="Rectangle 1138" fill="#d6002b" d="M118.65 162.351h40.445v2.835H118.65z"/><path data-name="Tracé 513" d="M98.326 130.276h-.187l-8.567 19.93c-.311.709-.676 1.533-1.063 2.4a19.037 19.037 0 01-10.588 10.333 19.363 19.363 0 01-5.94.869l-.011-33.456h-7.4v34.8h22.4c-.277-2.689-.045-5.565 1.932-10.871 0 0 1.1-2.728 1.515-3.705l4.33-10.1 10.571 24.68h8.05z" fill="#fff"/></g><g data-name="Groupe 605" fill="#fff"><path data-name="Tracé 514" d="M66.813 78.612a5.311 5.311 0 01-2.124-2.223 7.254 7.254 0 01-.747-3.384 6.185 6.185 0 01.846-3.3 5.475 5.475 0 012.287-2.089 7.091 7.091 0 013.186-.711 10.884 10.884 0 012.321.243 9.3 9.3 0 011.962.639 15.269 15.269 0 00-.2 2.79 3.388 3.388 0 01-1.225.18 3.137 3.137 0 00-.783-2.268 2.956 2.956 0 00-2.025-.63 3.513 3.513 0 00-2.169.657 3.911 3.911 0 00-1.3 1.728 6.375 6.375 0 00-.424 2.367 8.911 8.911 0 00.45 2.934 4.576 4.576 0 001.332 2.043 3.178 3.178 0 002.124.747 6.023 6.023 0 00.8-.044 2.878 2.878 0 00.639-.172.855.855 0 00.451-.4 2.181 2.181 0 00.144-.927v-.81a4.222 4.222 0 00-.1-1.089.628.628 0 00-.4-.441 3.353 3.353 0 00-.963-.126 2.951 2.951 0 01-.126-1.008q.809.054 2.3.054 1.26 0 2.268-.035a3.51 3.51 0 01-.107.989 1.113 1.113 0 00-.541.126.607.607 0 00-.215.423 6.7 6.7 0 00-.055 1.017v.684a5.18 5.18 0 00.055.828 2.055 2.055 0 00.215.63 7.081 7.081 0 01-2.061.99 8.836 8.836 0 01-2.637.378 6.351 6.351 0 01-3.178-.79z"/><path data-name="Tracé 515" d="M84.277 72.582q-.045.693-.027 1.233a2.523 2.523 0 01-.594.144 4.957 4.957 0 01-.72.054 1.93 1.93 0 00-.225-1.026.678.678 0 00-.585-.288.911.911 0 00-.63.333 2.64 2.64 0 00-.54.873 3.072 3.072 0 00-.216 1.152v1.242a3.46 3.46 0 00.162 1.206 1.065 1.065 0 00.522.594 2.677 2.677 0 001.026.216 3.173 3.173 0 01.108.973q-.882-.055-2.574-.055-1.89 0-2.79.055a3.4 3.4 0 01.108-.973 1.831 1.831 0 00.756-.18.813.813 0 00.36-.495 3.742 3.742 0 00.108-1.035v-2.9a2.744 2.744 0 00-.09-.8.713.713 0 00-.369-.423 2.088 2.088 0 00-.855-.162 1.76 1.76 0 01.18-.882 7.966 7.966 0 001.611-.207 6.416 6.416 0 001.269-.4q.468.179.468.9a4.724 4.724 0 01-.081.855q-.081.441-.189.891.036-.126.171-.486a3.1 3.1 0 01.261-.558 3.569 3.569 0 01.981-1.062 2.11 2.11 0 011.233-.4 2.031 2.031 0 011.278.432 14.78 14.78 0 00-.117 1.179z"/><path data-name="Tracé 516" d="M94.161 78.045a2.179 2.179 0 01-.144.774 7.752 7.752 0 00-1.234.18 4.987 4.987 0 00-1.142.4.73.73 0 01-.4-.351 1.522 1.522 0 01-.126-.693 3.733 3.733 0 01.053-.612 2.576 2.576 0 01-.7.99 3 3 0 01-2.015.63 2.859 2.859 0 01-1.828-.513 1.772 1.772 0 01-.639-1.467 2.215 2.215 0 011.413-2.169 12.79 12.79 0 013.465-.927 7.684 7.684 0 00-.08-1.323 1.578 1.578 0 00-.316-.693 1.249 1.249 0 00-1.044-.486 1.153 1.153 0 00-1.08.6 3.468 3.468 0 00-.413 1.431 3.7 3.7 0 01-1.261-.144q.018-.2.018-.593a7.9 7.9 0 00-.126-1.495 8.743 8.743 0 011.665-.549 7.75 7.75 0 011.719-.206 3.194 3.194 0 012.34.755 2.373 2.373 0 01.594 1.116 8.1 8.1 0 01.18 1.926v1.728a3.523 3.523 0 00.081.882.65.65 0 00.306.414 1.582 1.582 0 00.693.144zm-3.295-2.88a6.347 6.347 0 00-1.953.558 1.274 1.274 0 00-.675 1.224 1.165 1.165 0 00.27.837.911.911 0 00.684.279 1.394 1.394 0 00.784-.261 1.919 1.919 0 00.638-.792 2.98 2.98 0 00.252-1.287z"/><path data-name="Tracé 517" d="M106.256 79.288q-.774-.055-2.124-.055-.738 0-2.411.055a2.723 2.723 0 01.126-.973.983.983 0 00.855-.36 2.292 2.292 0 00.26-1.278v-2.25a2.637 2.637 0 00-.378-1.611 1.338 1.338 0 00-1.116-.477 1.462 1.462 0 00-.909.325 2.228 2.228 0 00-.684.989 4.45 4.45 0 00-.261 1.62v1.476a2.148 2.148 0 00.253 1.233 1.011 1.011 0 00.863.333 3.4 3.4 0 01.108.973q-1.512-.055-2.321-.055-1.64 0-2.449.055a2.837 2.837 0 01.126-.973 1.133 1.133 0 00.954-.333 2.157 2.157 0 00.252-1.233v-3.042a2.71 2.71 0 00-.09-.8.713.713 0 00-.369-.423 2.087 2.087 0 00-.855-.162 1.748 1.748 0 01.181-.882 7.956 7.956 0 001.61-.207 6.417 6.417 0 001.269-.4q.468.179.468.9a4.486 4.486 0 01-.161 1.08 3.157 3.157 0 01.414-.7 3.351 3.351 0 011.062-.837 3.151 3.151 0 011.493-.351 2.819 2.819 0 011.971.711 2.862 2.862 0 01.783 2.223v2.9a2.455 2.455 0 00.216 1.233.811.811 0 00.738.333 2.746 2.746 0 01.126.963z"/><path data-name="Tracé 518" d="M117.175 78.819a8.373 8.373 0 00-1.26.18 4.953 4.953 0 00-1.17.4.815.815 0 01-.4-.333 1.551 1.551 0 01-.117-.711 4.778 4.778 0 01.126-.918 3.959 3.959 0 01-.558.828 3.158 3.158 0 01-.99.783 2.937 2.937 0 01-1.422.351 3.377 3.377 0 01-2.556-.954 4.094 4.094 0 01-.918-2.934 4.825 4.825 0 01.594-2.394 4.316 4.316 0 011.674-1.674 4.961 4.961 0 012.484-.611 5.3 5.3 0 011.368.2v-1.926a2.319 2.319 0 00-.09-.728.68.68 0 00-.378-.4 2.3 2.3 0 00-.864-.153 1.76 1.76 0 01.18-.882 8.15 8.15 0 001.62-.189 4.062 4.062 0 001.278-.422.813.813 0 01.468.863v9.252a3.485 3.485 0 00.072.828.612.612 0 00.3.4 1.518 1.518 0 00.711.126 2.139 2.139 0 01-.152 1.018zm-3.726-1.539a4.1 4.1 0 00.576-2.421v-2.447a1.948 1.948 0 00-1.422-.613 2.255 2.255 0 00-1.665.756 3.751 3.751 0 00-.729 2.628 4.264 4.264 0 00.261 1.575 2.272 2.272 0 00.675.981 1.407 1.407 0 00.882.324 1.714 1.714 0 001.422-.787z"/><path data-name="Tracé 519" d="M127.111 79.197v1.458a3.465 3.465 0 00.162 1.206 1.068 1.068 0 00.522.594 2.676 2.676 0 001.026.216 3.17 3.17 0 01.108.972q-.882-.054-2.574-.054-1.89 0-2.79.054a3.5 3.5 0 01.108-.972 1.832 1.832 0 00.756-.18.813.813 0 00.36-.494 3.754 3.754 0 00.108-1.036v-7.254a2.745 2.745 0 00-.09-.8.713.713 0 00-.369-.423 2.088 2.088 0 00-.855-.162 1.76 1.76 0 01.18-.882 7.957 7.957 0 001.611-.207 6.415 6.415 0 001.269-.4q.468.179.468.9a2.566 2.566 0 01-.108.7 2.806 2.806 0 01.342-.468 3.172 3.172 0 01.99-.783 2.973 2.973 0 011.44-.35 3.392 3.392 0 012.538.935 3.889 3.889 0 01.918 2.826 5.136 5.136 0 01-.594 2.484 4.252 4.252 0 01-1.674 1.71 4.95 4.95 0 01-2.484.612 5.3 5.3 0 01-1.368-.202zm.576-6.255a4.1 4.1 0 00-.576 2.421v2.43a1.906 1.906 0 001.44.63 2.236 2.236 0 001.647-.756 3.747 3.747 0 00.729-2.628 3.919 3.919 0 00-.495-2.07 1.5 1.5 0 00-1.323-.81 1.714 1.714 0 00-1.422.783z"/><path data-name="Tracé 520" d="M142.106 72.582c-.029.462-.039.873-.026 1.233a2.533 2.533 0 01-.595.144 4.944 4.944 0 01-.719.054 1.938 1.938 0 00-.226-1.026.678.678 0 00-.585-.288.908.908 0 00-.629.333 2.624 2.624 0 00-.54.873 3.073 3.073 0 00-.217 1.152v1.242a3.461 3.461 0 00.162 1.206 1.065 1.065 0 00.522.594 2.683 2.683 0 001.027.216 3.205 3.205 0 01.108.973q-.883-.055-2.575-.055-1.888 0-2.79.055a3.4 3.4 0 01.108-.973 1.841 1.841 0 00.757-.18.808.808 0 00.359-.495 3.741 3.741 0 00.108-1.035v-2.9a2.75 2.75 0 00-.089-.8.718.718 0 00-.37-.423 2.087 2.087 0 00-.855-.162 1.748 1.748 0 01.181-.882 7.956 7.956 0 001.61-.207 6.417 6.417 0 001.269-.4q.468.179.468.9a4.813 4.813 0 01-.08.855 16.92 16.92 0 01-.19.891q.036-.126.172-.486a3.038 3.038 0 01.26-.558 3.569 3.569 0 01.981-1.062 2.11 2.11 0 011.233-.4 2.036 2.036 0 011.279.432 14.28 14.28 0 00-.118 1.179z"/><path data-name="Tracé 521" d="M144.155 78.315a1.191 1.191 0 00.963-.342 2.174 2.174 0 00.243-1.224v-3.15a2.319 2.319 0 00-.09-.728.68.68 0 00-.378-.4 2.3 2.3 0 00-.864-.153 1.759 1.759 0 01.18-.882 8.15 8.15 0 001.62-.189 3.809 3.809 0 001.26-.422.808.808 0 01.486.863v5.058a2.243 2.243 0 00.234 1.224 1.04 1.04 0 00.864.342 3.281 3.281 0 01.108.973q-.864-.055-2.358-.055-1.584 0-2.394.055a3.135 3.135 0 01.126-.97zm1.179-9.477a1.078 1.078 0 01-.369-.837 1.165 1.165 0 01.387-.918 1.4 1.4 0 01.963-.342 1.435 1.435 0 011 .333 1.166 1.166 0 01.369.909 1.078 1.078 0 01-.4.847 1.493 1.493 0 01-1.008.341 1.355 1.355 0 01-.942-.333z"/><path data-name="Tracé 522" d="M159.559 79.251q-.342-.018-.936-.018h-.972q-1.98 0-2.664.036a3.675 3.675 0 01.09-.954 1.4 1.4 0 00.477-.117.274.274 0 00.153-.261 1.691 1.691 0 00-.342-.81q-.234-.378-.774-1.17l-.558.828a2.383 2.383 0 00-.522 1.134c0 .241.162.372.486.4a2.959 2.959 0 01.126.954q-.612-.036-1.872-.036-.936 0-1.566.036a2.533 2.533 0 01.144-.954 1.546 1.546 0 00.882-.36 6.821 6.821 0 001.08-1.332l1.08-1.512q-.7-1.062-1.368-1.944a6.522 6.522 0 00-.873-1.017 1.255 1.255 0 00-.693-.261 2.554 2.554 0 01-.144-.935q1.188.034 2.2.035 1.692 0 2.358-.035a4.141 4.141 0 01-.108.935 1.211 1.211 0 00-.477.1.26.26 0 00-.153.243 1.971 1.971 0 00.45.918l.684.954.63-.972a2.3 2.3 0 00.414-.918.235.235 0 00-.126-.216 1.186 1.186 0 00-.4-.108 2.888 2.888 0 01-.126-.935q1.008.034 1.674.035t1.53-.035a3.58 3.58 0 01-.126.935 1.349 1.349 0 00-.693.243 4.448 4.448 0 00-.783.927l-1.26 1.818q1.044 1.423 1.35 1.89a8.628 8.628 0 00.9 1.206 1.031 1.031 0 00.7.324 2.861 2.861 0 01.128.949z"/><path data-name="Tracé 523" d="M67.231 88.461q1.974 0 3.925-.047t3.924-.047a15.37 15.37 0 014.606.611 9.08 9.08 0 013.173 1.669 6.684 6.684 0 011.857 2.49 7.915 7.915 0 01.611 3.126 7.539 7.539 0 01-2.256 5.546 12.144 12.144 0 01-5.594 3.008q.61.564 1.128 1.128a14.51 14.51 0 011.269 1.574q.61.87 1.269 2t1.552 2.772a18.477 18.477 0 003.242 4.466 5.9 5.9 0 003.949 1.6c0 .376-.009.721-.024 1.034a4.688 4.688 0 01-.164.986q-1.788 0-3.714.048t-3.666.235q-.752-1.175-1.832-3.1t-2.21-4.183a27.607 27.607 0 00-2.632-4.23 29.2 29.2 0 00-2.726-3.243 31.035 31.035 0 01-3.43 0v8.366a5.382 5.382 0 00.657 3.172 3.225 3.225 0 002.444.917 4.179 4.179 0 01.189.964c.031.36.047.713.047 1.056q-1.506-.093-3.1-.117t-2.492-.023h-1.365q-.753 0-1.528.023l-1.5.047q-.729.024-1.245.07c0-.343.015-.688.047-1.033a4.843 4.843 0 01.188-.987 3.447 3.447 0 002.561-.917 5.236 5.236 0 00.682-3.172V94.43a5.481 5.481 0 00-.682-3.22 3.111 3.111 0 00-2.561-.869 4.817 4.817 0 01-.188-.94 10.245 10.245 0 01-.047-1.034q.7.048 2.349.071t3.287.023zm3.807 1.692a14.922 14.922 0 00-1.55.282v13.16a4.522 4.522 0 00.892.094c.377.031.768.047 1.176.047a15.381 15.381 0 003.6-.4 8.463 8.463 0 002.914-1.268 6.233 6.233 0 001.951-2.186 6.581 6.581 0 00.7-3.149 6.714 6.714 0 00-1.763-4.818q-1.762-1.855-5.992-1.856a17.553 17.553 0 00-1.928.094z"/><path data-name="Tracé 524" d="M105.255 88.039a14.189 14.189 0 014.512.633 9.382 9.382 0 012.867 1.434q0 1.363.047 3.149a25.7 25.7 0 00.234 3.055 4.328 4.328 0 01-1.245.329 10.8 10.8 0 01-1.386.094 21.5 21.5 0 00-.847-3.314 6.392 6.392 0 00-1.1-2.02 3.438 3.438 0 00-1.41-1.011 4.844 4.844 0 00-1.668-.282 4.511 4.511 0 00-3.338 1.223 4.7 4.7 0 00-1.221 3.477 5.154 5.154 0 001.081 3.384 11.3 11.3 0 002.7 2.349 35.278 35.278 0 003.5 1.952 22.291 22.291 0 013.5 2.114 10.81 10.81 0 012.7 2.891 7.8 7.8 0 011.087 4.28 8.23 8.23 0 01-.729 3.407 9.066 9.066 0 01-2 2.844 9.339 9.339 0 01-3.007 1.927 10.044 10.044 0 01-3.807.705 22.458 22.458 0 01-2.891-.164 12.512 12.512 0 01-2.3-.518 13.608 13.608 0 01-2.115-.916q-1.057-.564-2.374-1.41a30.634 30.634 0 00.353-3.572q.07-1.786.071-3.1a7.54 7.54 0 011.221-.212c.471-.047.909-.07 1.317-.07a15.562 15.562 0 00.47 3.2 6.786 6.786 0 001.151 2.42 4.945 4.945 0 002.068 1.552 8.524 8.524 0 003.266.54 6.107 6.107 0 002.3-.4 4.857 4.857 0 001.645-1.057 4.562 4.562 0 001.01-1.528 4.889 4.889 0 00.352-1.856 5.234 5.234 0 00-1.081-3.432 10.208 10.208 0 00-2.7-2.279 37.123 37.123 0 00-3.525-1.833 19.589 19.589 0 01-3.525-2.067 10.294 10.294 0 01-2.7-2.985 8.89 8.89 0 01-1.081-4.653 8.673 8.673 0 01.634-3.36 7.854 7.854 0 011.763-2.632 7.618 7.618 0 012.7-1.693 9.969 9.969 0 013.501-.595z"/><path data-name="Tracé 525" d="M132.288 88.039a14.18 14.18 0 014.512.633 9.369 9.369 0 012.867 1.434q0 1.363.047 3.149a25.885 25.885 0 00.235 3.055 4.337 4.337 0 01-1.245.329 10.8 10.8 0 01-1.387.094 21.507 21.507 0 00-.846-3.314 6.392 6.392 0 00-1.1-2.02 3.438 3.438 0 00-1.41-1.011 4.85 4.85 0 00-1.669-.282 4.509 4.509 0 00-3.337 1.223 4.7 4.7 0 00-1.222 3.477 5.154 5.154 0 001.081 3.384 11.323 11.323 0 002.7 2.349 35.275 35.275 0 003.5 1.952 22.292 22.292 0 013.5 2.114 10.809 10.809 0 012.7 2.891 7.8 7.8 0 011.081 4.277 8.229 8.229 0 01-.728 3.407 9.1 9.1 0 01-2 2.844 9.344 9.344 0 01-3.008 1.927 10.037 10.037 0 01-3.807.705 22.451 22.451 0 01-2.89-.164 12.511 12.511 0 01-2.3-.518 13.609 13.609 0 01-2.115-.916q-1.058-.564-2.374-1.41a30.634 30.634 0 00.353-3.572q.07-1.786.07-3.1a7.553 7.553 0 011.222-.212q.705-.07 1.317-.07a15.57 15.57 0 00.469 3.2 6.8 6.8 0 001.152 2.42 4.946 4.946 0 002.068 1.552 8.521 8.521 0 003.266.54 6.1 6.1 0 002.3-.4 4.848 4.848 0 001.645-1.057 4.549 4.549 0 001.011-1.528 4.889 4.889 0 00.352-1.856 5.233 5.233 0 00-1.081-3.432 10.224 10.224 0 00-2.7-2.279 37.122 37.122 0 00-3.525-1.833 19.587 19.587 0 01-3.524-2.073 10.311 10.311 0 01-2.7-2.985 8.891 8.891 0 01-1.081-4.653 8.673 8.673 0 01.635-3.36 7.851 7.851 0 011.762-2.632 7.622 7.622 0 012.7-1.693 9.96 9.96 0 013.504-.586z"/><path data-name="Tracé 526" d="M152.587 94.43a5.252 5.252 0 00-.681-3.173 3.46 3.46 0 00-2.562-.916 6.422 6.422 0 01-.235-2.021q2.585.141 5.687.141 1.5 0 2.89-.023t2.8-.118a6.422 6.422 0 01-.235 2.021 3.46 3.46 0 00-2.562.916 5.244 5.244 0 00-.681 3.173v19.834a5.236 5.236 0 00.681 3.172 3.452 3.452 0 002.562.917 6.423 6.423 0 01.235 2.02q-2.82-.139-5.687-.14-1.363 0-2.914.023t-2.773.117a6.423 6.423 0 01.235-2.02 3.452 3.452 0 002.562-.917 5.244 5.244 0 00.681-3.172z"/></g></g><g data-name="Groupe 608"><g data-name="Groupe 607" fill="#fff"><path data-name="Tracé 527" d="M50.878 110.813a3.508 3.508 0 01.08-.8q.064-.24.144-.528H49.15a3.339 3.339 0 00-.495.032.665.665 0 00-.352.16.783.783 0 00-.217.367 2.315 2.315 0 00-.071.641 1.488 1.488 0 01-.32-.032.832.832 0 01-.273-.113 3.117 3.117 0 00-.048-.479 8.842 8.842 0 00-.12-.624 5.065 5.065 0 00-.175-.607 2.136 2.136 0 00-.2-.433.5.5 0 01.193-.248.769.769 0 01.447-.1h8.8a1.189 1.189 0 00.728-.207 1.215 1.215 0 00.264-.864c.118 0 .232.005.345.016a1.383 1.383 0 01.343.08 3.124 3.124 0 00.04.44q.04.264.1.528a3.788 3.788 0 00.161.5 2.078 2.078 0 00.192.385.613.613 0 01-.208.272.952.952 0 01-.577.129c-.192 0-.383-.006-.575-.017q-.208-.016-.513-.063a1.727 1.727 0 01.289.143c.181.1.314.171.4.224a2.557 2.557 0 01.385.312 2.446 2.446 0 01.384.489 3.182 3.182 0 01.3.639 2.293 2.293 0 01.121.752 2.861 2.861 0 01-.849 2.2 3.871 3.871 0 01-2.7.791 4.325 4.325 0 01-1.575-.287 3.928 3.928 0 01-1.3-.808 3.759 3.759 0 01-.872-1.256 4.035 4.035 0 01-.324-1.634zm4.976-1.151a4.83 4.83 0 00-1.168-.177h-2.5a4.023 4.023 0 00-.352.479 1.766 1.766 0 00-.223.929 2.4 2.4 0 00.128.735 1.857 1.857 0 00.48.752 2.761 2.761 0 00.952.593 4.281 4.281 0 001.559.239 3.963 3.963 0 001.3-.183 2.719 2.719 0 00.847-.448 1.658 1.658 0 00.465-.576 1.417 1.417 0 00.144-.584 1.65 1.65 0 00-.16-.7 1.7 1.7 0 00-.528-.624 2.736 2.736 0 00-.944-.435z"/><path data-name="Tracé 528" d="M54.783 103.299c.01.353.026.694.047 1.025a4.855 4.855 0 00.688-.08 3.421 3.421 0 001.041-.377 2.123 2.123 0 00.751-.711 2.1 2.1 0 00.289-1.153 2.51 2.51 0 00-.232-1.04 2.643 2.643 0 00-.7-.912.96.96 0 01.224-.239.773.773 0 01.272-.145 3.236 3.236 0 011.024 1.264 3.956 3.956 0 01.305 1.584 3.423 3.423 0 01-.305 1.488 3.056 3.056 0 01-.816 1.065 3.387 3.387 0 01-1.208.631 5.16 5.16 0 01-1.48.209 4.523 4.523 0 01-1.456-.233 3.908 3.908 0 01-1.215-.656 3.034 3.034 0 01-.832-1.039 3.087 3.087 0 01-.3-1.385 3.04 3.04 0 01.264-1.328 2.522 2.522 0 01.712-.9 3.178 3.178 0 011.048-.537 5.744 5.744 0 011.288-.232 1.27 1.27 0 01.544.24v.817q0 .543.009 1.223t.038 1.421zm-1.745.912a5.551 5.551 0 00.977.128v-3.072a3.359 3.359 0 00-1.712.385 1.2 1.2 0 00-.657 1.088 1.478 1.478 0 00.121.576 1.264 1.264 0 00.432.519 2.5 2.5 0 00.839.376z"/><path data-name="Tracé 529" d="M51.438 93.111q.385.031.816.031a5.653 5.653 0 00.848-.063 1.527 1.527 0 01.192.8 2.16 2.16 0 00-.648.168 1.991 1.991 0 00-.56.368 1.85 1.85 0 00-.4.552 1.626 1.626 0 00-.151.7 1.224 1.224 0 00.239.792.781.781 0 00.64.3 1.128 1.128 0 00.369-.055.811.811 0 00.327-.256 2.819 2.819 0 00.352-.576c.123-.25.27-.59.44-1.016a8.5 8.5 0 01.481-1.08 2.944 2.944 0 01.511-.705 1.607 1.607 0 01.593-.375 2.294 2.294 0 01.752-.113 1.937 1.937 0 01.927.224 2.194 2.194 0 01.712.616 2.889 2.889 0 01.456.929 4.025 4.025 0 01.161 1.16 8.14 8.14 0 01-.04.848 5.956 5.956 0 01-.112.68 3.635 3.635 0 01-.184.576 7.19 7.19 0 01-.257.535c-.128-.01-.277-.021-.447-.031s-.35-.016-.537-.016-.367 0-.544.008-.328.013-.456.023a.822.822 0 01-.135-.359 2.744 2.744 0 01-.04-.473 2.52 2.52 0 001.5-.623 1.8 1.8 0 00.5-1.328 1.6 1.6 0 00-.288-1.017.905.905 0 00-.736-.36.944.944 0 00-.376.072.865.865 0 00-.321.264 3.144 3.144 0 00-.319.528q-.168.336-.393.865a11.724 11.724 0 01-.487 1.1 3.053 3.053 0 01-.505.729 1.673 1.673 0 01-.615.408 2.38 2.38 0 01-.825.127 1.5 1.5 0 01-.887-.264 2.226 2.226 0 01-.624-.664 3.119 3.119 0 01-.369-.863 3.473 3.473 0 01-.12-.865 5.02 5.02 0 01.144-1.264 4.682 4.682 0 01.416-1.037z"/></g></g></g></g></g><g data-name="Groupe 613"><g data-name="Groupe 612" fill="#fff"><path data-name="Tracé 530" d="M50.749 78.411a4.056 4.056 0 00.9-.084 1.586 1.586 0 00.611-.281 1.648 1.648 0 00.429-.507 4.624 4.624 0 00.331-.766 2.56 2.56 0 01.326.13 1.022 1.022 0 01.247.181 8.468 8.468 0 00-.241.969c-.065.343-.119.665-.163.969-.13 0-.288 0-.474-.007l-.618-.013a31.79 31.79 0 00-.7-.006h-1.572c-.321 0-.64 0-.956.006l-.9.013a19.5 19.5 0 00-.669.02 1.76 1.76 0 01.068-.559 1.715 1.715 0 00.435-.071.552.552 0 00.279-.2.93.93 0 00.15-.383 3.47 3.47 0 00.045-.618v-5.343a1.455 1.455 0 00-.188-.878.961.961 0 00-.709-.253.978.978 0 01-.052-.254c-.008-.1-.013-.2-.013-.306l.4.027.428.012h.742q.416 0 .8-.005c.255-.005.514-.016.773-.034a1.763 1.763 0 01-.065.56 1.592 1.592 0 00-.429.071.592.592 0 00-.273.189.824.824 0 00-.149.35 2.878 2.878 0 00-.046.56v5.3a3.247 3.247 0 00.046.6.717.717 0 00.176.37.682.682 0 00.357.189 2.711 2.711 0 00.591.052z"/><path data-name="Tracé 531" d="M56.668 76.097c-.286.009-.564.022-.832.039a3.793 3.793 0 00.065.559 2.725 2.725 0 00.3.844 1.733 1.733 0 00.579.612 1.7 1.7 0 00.936.234 2.041 2.041 0 00.845-.188 2.15 2.15 0 00.741-.567.791.791 0 01.2.183.627.627 0 01.117.221 2.636 2.636 0 01-1.027.832 3.215 3.215 0 01-1.287.247 2.78 2.78 0 01-1.209-.247 2.49 2.49 0 01-.865-.663 2.747 2.747 0 01-.513-.982 4.162 4.162 0 01-.169-1.2 3.7 3.7 0 01.188-1.184 3.193 3.193 0 01.533-.987 2.49 2.49 0 01.845-.677 2.518 2.518 0 011.125-.246 2.473 2.473 0 011.079.214 2.063 2.063 0 01.728.579 2.588 2.588 0 01.435.852 4.642 4.642 0 01.189 1.046 1.027 1.027 0 01-.2.442h-.662q-.442 0-.995.006c-.362.003-.746.01-1.146.031zm-.741-1.417a4.509 4.509 0 00-.1.793h2.5a2.738 2.738 0 00-.312-1.392.977.977 0 00-.884-.532 1.208 1.208 0 00-.468.1 1.039 1.039 0 00-.423.351 2.04 2.04 0 00-.311.676z"/></g></g></g></svg>
