<svg xmlns="http://www.w3.org/2000/svg" viewBox="0 0 132 61"><g data-name="Groupe 377"><path data-name="Rectangle 1093" fill="#fff" d="M0 0h132v61H0z"/><g data-name="Groupe 368"><g data-name="Groupe 367" fill="#001821"><path data-name="Tracé 261" d="M91.508 34.384l-1.212 4.263H74.041v-.14l2.01-2.079c5.03-5.163 9.53-10.501 9.53-15.735 0-3.6-2.253-5.371-5.061-5.371-2.043 0-4.124 1.005-5.822 3.466l-.451-.208A10.053 10.053 0 0183.258 13c4.159 0 7.833 2.253 7.833 6.9 0 4.957-4.575 8.8-13 15.18h2.29a75.366 75.366 0 0011.127-.696z"/><path data-name="Tracé 262" d="M94.134 26.308c0-8.56 4.09-13.308 10.57-13.308 6.03 0 10.6 4.333 10.6 12.754 0 8.56-4.159 13.308-10.639 13.308-5.991 0-10.531-4.331-10.531-12.754zm15.63-.138c0-7.485-1.595-12.684-5.129-12.684-3.5 0-4.955 5.129-4.955 12.373 0 7.521 1.595 12.719 5.129 12.719 3.5-.002 4.951-5.13 4.951-12.408z"/></g><path data-name="Rectangle 1086" fill="#d6002b" d="M73.594 45.321h40.702v2.853H73.594z"/><path data-name="Tracé 263" d="M53.141 13.039h-.188l-8.622 20.056c-.313.713-.68 1.542-1.069 2.419a19.157 19.157 0 01-10.656 10.4 19.491 19.491 0 01-5.977.874l-.011-33.668h-7.451v35.018h22.539c-.278-2.705-.044-5.6 1.944-10.94 0 0 1.1-2.746 1.525-3.728l4.358-10.169L60.17 48.137h8.106z" fill="#001821"/></g></g></svg>
