<svg xmlns="http://www.w3.org/2000/svg" viewBox="0 0 195 61"><g data-name="Groupe 671"><path data-name="Rectangle 1094" fill="#fff" d="M0 0h195v61H0z"/><g data-name="Groupe 372"><path data-name="Rectangle 1091" fill="#d6002b" d="M19.82 42.873h28.578v2.396H19.82z"/><path data-name="Tracé 272" d="M77.807 37.519c0 4.795-4.22 7.711-11.663 7.711H55.093V17.299h11.165c6.408 0 10.052 2.225 10.052 6.331 0 3.837-3.568 6.139-7.788 6.753v.076c5.372.307 9.285 2.532 9.285 7.06zM64.531 17.913h-3.337v12.623h3.836c3.185 0 4.911-2.763 4.911-6.292.003-3.454-1.611-6.331-5.41-6.331zm6.638 20.182c0-4.145-2.071-6.944-5.6-6.944h-4.375v13.2a14.561 14.561 0 003.031.269c4.873-.003 6.944-2.42 6.944-6.525z" fill="#001821"/><path data-name="Tracé 273" d="M86.452 33.566v.155c0 6.637 2.84 9.707 6.868 9.707a8.432 8.432 0 006.6-3.376l.461.268a11.172 11.172 0 01-9.669 5.372c-5.794 0-10.13-3.99-10.13-10.359 0-6.868 4.681-11.2 11.051-11.2 6.407 0 9.015 4.374 8.786 9.438zm0-.613h8.94c.5-4.988-1.38-8.249-4.066-8.249-2.917 0-4.681 3.606-4.874 8.249z" fill="#001821"/><path data-name="Tracé 274" d="M110.387 20.637v3.952h5.679l-.5.844h-5.18v19.8h-5.678v-19.8h-2.494v-.844h2.494v-3.223c0-4.758 3.031-7.366 7.212-7.366a12.141 12.141 0 016.83 2.225l-.306.46a8.627 8.627 0 00-3.76-.959c-2.57 0-4.297 1.573-4.297 4.911z" fill="#001821"/><path data-name="Tracé 275" d="M115.694 35.024c0-6.56 4.8-10.9 11.165-10.9 6.254 0 10.858 4.068 10.858 10.667 0 6.56-4.834 10.9-11.165 10.9-6.253 0-10.858-4.067-10.858-10.667zm16.038.039c0-6.217-1.842-10.4-5.1-10.4-3.375 0-4.949 4.029-4.949 10.168 0 6.178 1.842 10.321 5.065 10.321 3.373.002 4.984-4.027 4.984-10.088z" fill="#001821"/><path data-name="Tracé 276" d="M154.835 24.359l-1.5 4.182a4.654 4.654 0 00-2.033-.5 4.4 4.4 0 00-4.105 3.492v13.7h-5.64V25.357l5.333-1.343h.153v6.331c1-3.8 3.338-6.216 6.1-6.216a7.075 7.075 0 011.692.23z" fill="#001821"/><path data-name="Tracé 277" d="M161.271 33.566v.155c0 6.637 2.84 9.707 6.868 9.707a8.432 8.432 0 006.6-3.376l.46.268a11.168 11.168 0 01-9.668 5.372c-5.794 0-10.13-3.99-10.13-10.359 0-6.868 4.682-11.2 11.05-11.2 6.408 0 9.016 4.374 8.787 9.438zm0-.613h8.94c.5-4.988-1.38-8.249-4.067-8.249-2.916 0-4.68 3.606-4.873 8.249z" fill="#001821"/><g data-name="Groupe 371" fill="#001821"><path data-name="Tracé 278" d="M31.877 35.01l-.669 3.433H19.919V17.26h4.626v20.66h.407c1.747 0 3.841-.524 6.867-2.91z"/><path data-name="Tracé 279" d="M37.812 29.597v.115c0 5.035 2.153 7.363 5.208 7.363a6.4 6.4 0 005-2.56l.35.2a8.472 8.472 0 01-7.333 4.073c-4.394 0-7.681-3.026-7.681-7.856 0-5.209 3.55-8.5 8.379-8.5 4.86 0 6.838 3.317 6.664 7.158zm0-.466h6.78c.378-3.783-1.048-6.256-3.084-6.256-2.214.001-3.552 2.736-3.696 6.257z"/></g></g></g></svg>
