<svg xmlns="http://www.w3.org/2000/svg" viewBox="0 0 202 61"><g data-name="Groupe 378"><path data-name="Tracé 282" d="M0 0h202v61H0z" fill="#fff"/><g data-name="Groupe 370"><g data-name="Groupe 369" fill="#001821"><path data-name="Tracé 264" d="M55.646 30.981c.09-8.929 6.1-14.407 14.236-14.326a14.7 14.7 0 0110.24 4.512l-2.586 2.31c-1.476-3.217-4.232-6.184-7.776-6.219-5.05-.051-7.517 5.576-7.586 12.433-.087 8.665 3.713 13 9.1 13.053a10.054 10.054 0 008.6-4.472l.449.268a13.171 13.171 0 01-11.67 6.439c-7.722-.078-13.093-5.785-13.007-13.998z"/><path data-name="Tracé 265" d="M88.353 33.065v.151c0 6.518 2.789 9.532 6.744 9.532a8.284 8.284 0 006.481-3.315l.452.264a10.969 10.969 0 01-9.495 5.275c-5.69 0-9.948-3.919-9.948-10.173 0-6.744 4.6-11 10.852-11 6.291 0 8.854 4.3 8.628 9.269zm0-.6h8.779c.489-4.9-1.355-8.1-3.994-8.1-2.863-.003-4.596 3.538-4.785 8.097z"/><path data-name="Tracé 266" d="M118.78 24.023l-1.469 4.107a4.576 4.576 0 00-2-.489 4.32 4.32 0 00-4.031 3.428v13.45h-5.539V25.002l5.238-1.318h.15V29.9c.979-3.73 3.279-6.1 5.991-6.1a6.933 6.933 0 011.66.223z"/><path data-name="Tracé 267" d="M119.337 34.685c0-6.669 4.785-10.889 10.587-10.889a9.946 9.946 0 017.762 3.316l-1.922 1.7c-1.545-2.562-3.014-4.446-5.35-4.446-3.164 0-5.123 3.353-5.123 8.967 0 6.368 2.486 9.419 6.178 9.419a7.438 7.438 0 005.991-3.39l.452.264c-2.148 3.277-4.973 5.35-8.892 5.35-5.425-.005-9.683-3.962-9.683-10.291z"/><path data-name="Tracé 268" d="M140.87 15.579l5.425-1.583h.151v30.523h-5.576z"/><path data-name="Tracé 269" d="M156.002 33.065v.151c0 6.518 2.789 9.532 6.744 9.532a8.284 8.284 0 006.481-3.315l.452.264a10.969 10.969 0 01-9.495 5.275c-5.69 0-9.947-3.919-9.947-10.173 0-6.744 4.6-11 10.851-11 6.292 0 8.854 4.3 8.628 9.269zm0-.6h8.779c.49-4.9-1.355-8.1-3.993-8.1-2.864-.003-4.597 3.538-4.786 8.097z"/></g><path data-name="Rectangle 1090" fill="#d6002b" d="M22 42.158h28.201v2.364H22z"/><path data-name="Tracé 270" d="M33.899 34.399l-.661 3.389h-11.14v-20.9h4.563V37.27h.4c1.723 0 3.79-.517 6.776-2.872z" fill="#001821"/><path data-name="Tracé 271" d="M39.753 29.054v.114c0 4.967 2.126 7.266 5.14 7.266a6.311 6.311 0 004.938-2.527l.346.2a8.359 8.359 0 01-7.236 4.021c-4.336 0-7.58-2.986-7.58-7.753 0-5.14 3.5-8.384 8.269-8.384 4.8 0 6.748 3.273 6.576 7.063zm0-.46h6.69c.373-3.733-1.034-6.173-3.044-6.173-2.182.005-3.503 2.703-3.646 6.177z" fill="#001821"/></g></g></svg>
