<svg xmlns="http://www.w3.org/2000/svg" viewBox="0 0 149.408 23.803"><defs><clipPath id="a"><path data-name="Rectangle 1125" transform="translate(266.093 184.224)" fill="#fff" d="M0 0h149.408v23.803H0z"/></clipPath><clipPath id="b"><path data-name="Rectangle 1122" transform="translate(317.625 183.755)" fill="#fff" d="M0 0h22.793v10.089H0z"/></clipPath><clipPath id="c"><path data-name="Tracé 318" d="M329.092 193.36l-6.952-8.038s-.793-1.03.7-1.07c1.508-.042 4.93 0 4.93 0a2.323 2.323 0 011.582.7c.9.9 6.764 8.417 6.764 8.417z" fill="#fff"/></clipPath><clipPath id="d"><path data-name="Rectangle 1124" transform="translate(312.478 192.896)" fill="#fff" d="M0 0h27.94v15.609H0z"/></clipPath><clipPath id="e"><path data-name="Tracé 319" d="M336.114 193.379l-12.005 13.951a3 3 0 01-2.186.7h-4.557a.617.617 0 01-.491-.273c-.145-.2-.153-.5.21-.983.7-.93 11.5-13.4 11.5-13.4z" fill="#fff"/></clipPath></defs><g data-name="Groupe 467"><g data-name="Groupe 466"><g data-name="Groupe 465" clip-path="url(#a)" transform="translate(-266.093 -184.224)"><path data-name="Tracé 313" d="M412.753 199.948h2.747V186.6h-2.474l-4.986 5.948-4.986-5.948h-2.473v13.348h2.748v-9.01l4.456 5.379h.491l4.476-5.379zM389.138 186.6h-2.748v7.715c0 3.4 2.1 5.85 6.045 5.85 3.985 0 6.106-2.71 6.106-5.85V186.6h-2.749v7.519c0 2.061-1.1 3.493-3.357 3.493-2.217 0-3.3-1.354-3.3-3.474zm-7.538 13.348h2.748V186.6H381.6zm-6.125-5.221c1.2.334 1.9.687 1.9 1.413 0 .883-.9 1.492-2.513 1.492a7.946 7.946 0 01-4.122-1.256l-.648 2.611a10.6 10.6 0 004.711 1.158c3.219 0 5.438-1.708 5.438-4.221 0-1.9-1.178-3-3.593-3.69l-2.473-.707c-.962-.274-1.453-.569-1.453-1.295 0-.766.707-1.3 2.4-1.3a8.377 8.377 0 014.1 1.119l.785-2.572a10.964 10.964 0 00-4.79-1.06c-3.671 0-5.339 1.826-5.339 4.044 0 1.806 1.04 3.043 3.062 3.573zm-17.2-1.433a4.163 4.163 0 114.162 4.279 4.1 4.1 0 01-4.162-4.279m-2.709 0a6.871 6.871 0 106.851-6.89 6.7 6.7 0 00-6.851 6.89m-5.516-4.3a2.434 2.434 0 110 4.868h-3.2v-4.868zm-5.948 10.953h2.748v-3.69h3.632a4.642 4.642 0 004.849-4.79 4.523 4.523 0 00-4.849-4.868h-6.38z" fill="#fff"/><path data-name="Tracé 314" d="M321.784 199.967v-2.417h-7.942v-3.224h6.507v-2.418h-6.507v-2.89h7.942V186.6h-10.576v13.367zm-15.53 0h2.752V186.6h-2.476l-4.993 5.957-4.994-5.957h-2.476v13.367h2.752v-9.022l4.462 5.386h.491l4.482-5.386zm-24.611-6.667a4.169 4.169 0 114.167 4.285 4.1 4.1 0 01-4.167-4.285m-2.713 0a6.88 6.88 0 106.86-6.9 6.709 6.709 0 00-6.86 6.9" fill="#fff"/><path data-name="Tracé 315" d="M277.53 188.415a5.248 5.248 0 00-4.556-2.011 6.88 6.88 0 100 13.76 8.3 8.3 0 005.484-2.164l-1.3-2.064a6.264 6.264 0 01-4.128 1.671c-2.457 0-4.089-1.573-4.089-4.3 0-2.772 1.632-4.345 3.99-4.345a2.766 2.766 0 012.365 1.018z" fill="#fff"/><path data-name="Tracé 316" d="M328.627 193.374l-6.487-8.039s-.791-.977.7-1.07 4.93 0 4.93 0a2.332 2.332 0 011.582.7c.9.9 6.764 8.416 6.764 8.416z" fill="#fff"/><path data-name="Tracé 317" d="M336.114 193.379l-12.005 13.951a3 3 0 01-2.187.7h-4.556a.617.617 0 01-.491-.273c-.145-.2-.153-.5.21-.983.7-.93 11.542-13.4 11.542-13.4z" fill="#fff"/><g data-name="Groupe 459"><g data-name="Groupe 458" opacity=".7"><g data-name="Groupe 457"><g data-name="Groupe 456" clip-path="url(#b)"><g data-name="Groupe 455" clip-path="url(#c)"><path data-name="Rectangle 1121" fill="#fff" d="M316.853 187.914l13.293-10.951 10.467 12.705-13.293 10.952z"/></g></g></g></g></g><g data-name="Groupe 464"><g data-name="Groupe 463" opacity=".7"><g data-name="Groupe 462"><g data-name="Groupe 461" clip-path="url(#d)"><g data-name="Groupe 460" clip-path="url(#e)"><path data-name="Rectangle 1123" fill="#fff" d="M309.578 202.324l14.692-18.405 18.989 15.159-14.692 18.404z"/></g></g></g></g></g><path data-name="Tracé 320" d="M336.994 192.847l-2.851-3.519s1.425-1.769 1.689-2.111a2.232 2.232 0 011.619-.76h3.4a.684.684 0 01.6.394.6.6 0 01-.1.647c-.69.821-4.363 5.349-4.363 5.349" fill="#fff"/><path data-name="Tracé 321" d="M336.994 194.29l-2.851 3.449 1.06 1.472a2.686 2.686 0 001.886.94h3.228a.642.642 0 00.512-1.04c-.518-.641-3.835-4.821-3.835-4.821" fill="#fff"/></g></g></g></svg>
