<svg xmlns="http://www.w3.org/2000/svg" viewBox="0 0 228.068 27.873"><g data-name="Groupe 529"><g data-name="Groupe 343"><g data-name="Groupe 342" fill="#fff"><path data-name="Tracé 228" d="M15.106 23.095l-.845 4.337H0V.675h5.844v26.1h.515c2.206 0 4.852-.661 8.675-3.676z"/><path data-name="Tracé 229" d="M42.561 26.036l.846-3.162a10.785 10.785 0 008.564 4.411c3.455 0 5.367-2.133 5.367-4.7 0-3.309-3.309-4.7-5.881-5.845l-1.839-.773c-2.572-1.139-6.763-3.124-6.763-7.976 0-4.447 3.6-7.754 9.189-7.754a18.148 18.148 0 017.718 1.837l-.735 2.83c-1.617-1.875-4.19-4.08-7.461-4.08-3.235 0-4.962 2.058-4.962 4.41 0 3.014 2.9 4.375 5.587 5.551l1.837.772c2.977 1.286 7.021 3.234 7.021 8.159 0 4.337-3.345 8.159-9.556 8.159a25.179 25.179 0 01-8.932-1.839z"/><path data-name="Tracé 230" d="M103.861 26.036l.845-3.162a10.786 10.786 0 008.564 4.411c3.455 0 5.367-2.133 5.367-4.7 0-3.309-3.308-4.7-5.881-5.845l-1.838-.772c-2.572-1.139-6.763-3.124-6.763-7.976 0-4.447 3.6-7.754 9.189-7.754a18.148 18.148 0 017.717 1.829l-.735 2.83c-1.617-1.875-4.19-4.08-7.461-4.08-3.234 0-4.962 2.058-4.962 4.41 0 3.014 2.9 4.375 5.587 5.551l1.838.772c2.977 1.286 7.02 3.234 7.02 8.159 0 4.337-3.344 8.159-9.556 8.159a25.17 25.17 0 01-8.931-1.832z"/><path data-name="Tracé 231" d="M126.772 26.036l.845-3.162a10.787 10.787 0 008.564 4.411c3.455 0 5.367-2.133 5.367-4.7 0-3.309-3.308-4.7-5.881-5.845l-1.838-.772c-2.572-1.139-6.763-3.124-6.763-7.976 0-4.447 3.6-7.754 9.189-7.754a18.151 18.151 0 017.718 1.837l-.736 2.83c-1.616-1.875-4.19-4.08-7.461-4.08-3.234 0-4.961 2.058-4.961 4.41 0 3.014 2.9 4.375 5.587 5.551l1.837.772c2.978 1.286 7.021 3.234 7.021 8.159 0 4.337-3.345 8.159-9.556 8.159a25.174 25.174 0 01-8.932-1.84z"/><path data-name="Tracé 232" d="M151.16.675h5.844v26.757h-5.844z"/><path data-name="Tracé 233" d="M163.159 26.036l.846-3.162a10.787 10.787 0 008.563 4.411c3.456 0 5.367-2.133 5.367-4.7 0-3.309-3.309-4.7-5.881-5.845l-1.839-.772c-2.573-1.139-6.763-3.124-6.763-7.976 0-4.447 3.6-7.754 9.189-7.754a18.153 18.153 0 017.719 1.837l-.736 2.83c-1.616-1.875-4.19-4.08-7.461-4.08-3.233 0-4.962 2.058-4.962 4.41 0 3.014 2.9 4.375 5.588 5.551l1.837.772c2.978 1.286 7.02 3.234 7.02 8.159 0 4.337-3.344 8.159-9.556 8.159a25.188 25.188 0 01-8.931-1.84z"/><path data-name="Tracé 234" d="M209.58 26.036l.845-3.162a10.788 10.788 0 008.563 4.411c3.456 0 5.368-2.133 5.368-4.7 0-3.309-3.309-4.7-5.881-5.845l-1.839-.772c-2.572-1.139-6.762-3.124-6.762-7.976 0-4.447 3.6-7.754 9.189-7.754a18.158 18.158 0 017.719 1.837l-.736 2.83c-1.616-1.875-4.19-4.08-7.462-4.08-3.233 0-4.961 2.058-4.961 4.41 0 3.014 2.9 4.375 5.587 5.551l1.837.772c2.978 1.286 7.02 3.234 7.02 8.159 0 4.337-3.344 8.159-9.556 8.159a25.183 25.183 0 01-8.931-1.84z"/><path data-name="Tracé 235" d="M88.479 0l-6.762 15.731c-2.389 5.439-3.6 8.122-5.623 11.8h3.564c-.219-2.123-.036-4.393 1.524-8.581 0 0 .865-2.153 1.2-2.924l3.417-7.976 8.345 19.48h6.358L88.631 0z"/><path data-name="Rectangle 1075" d="M20.547.662h5.845V27.42h-5.845z"/><path data-name="Tracé 236" d="M34.882 15.364h.074v-3.532h-.074c-.692.664-2.511 1.1-5.178 1.254v.824c2.667.21 4.486.761 5.178 1.454z"/><path data-name="Tracé 237" d="M37.495 4.042h.073l-.514-3.38h-7.35v.764a18.517 18.517 0 017.791 2.616z"/><path data-name="Tracé 238" d="M38.227 23.782h-.074a17.642 17.642 0 01-8.449 2.9v.738h7.714z"/><path data-name="Rectangle 1076" d="M187.45.662h5.845V27.42h-5.845z"/><path data-name="Tracé 239" d="M201.784 15.364h.074v-3.532h-.074c-.693.664-2.511 1.1-5.178 1.254v.824c2.672.21 4.485.761 5.178 1.454z"/><path data-name="Tracé 240" d="M204.394 4.042h.073l-.515-3.38h-7.346v.764a18.52 18.52 0 017.788 2.616z"/><path data-name="Tracé 241" d="M205.129 23.782h-.074a17.639 17.639 0 01-8.449 2.9v.738h7.714z"/></g></g></g></svg>
