<svg xmlns="http://www.w3.org/2000/svg" viewBox="0 0 68.577 46.866"><g data-name="Groupe 600" fill="#fff"><path data-name="Tracé 333" d="M21.085 45.97a25.143 25.143 0 002.9-.61 23.908 23.908 0 006.456-2.979c9.231-6.5 9.206-13.15 9.206-18.245 0-1.138.034-2.21.033-2.279.338-8.531 5.951-14.246 14.089-14.246 5.113 0 9.922 2.923 13.13 5.9V3.435A25.576 25.576 0 0053.235 0C41.09 0 29.687 7.89 29.687 21.186c0 1.271.049 2.413.049 2.5-.333 10.04-6.4 15.356-15.081 15.356-1.6 0-3.511-.076-4.961-.23V8.359a45.048 45.048 0 014.579-.228c5.582 0 9.951 1.911 12.61 5.365.659-3.806 1.857-5.785 4.02-8.936-4.3-2.954-10.1-4.559-17.242-4.559A110.787 110.787 0 00-.001.993v44.8a77.266 77.266 0 0013.588.992 36.893 36.893 0 009.627-1.178z"/><path data-name="Tracé 334" d="M59.115 25.112v13.685a15.248 15.248 0 01-5.343.762 13.26 13.26 0 01-10.648-5.3 22.988 22.988 0 01-6.447 6.637c4.147 3.828 9.95 5.973 16.943 5.973 5.341 0 11.372-1.146 14.96-3.435V25.112z"/></g></svg>
