<svg xmlns="http://www.w3.org/2000/svg" viewBox="0 0 224.019 224.019"><g data-name="Groupe 589"><path data-name="Rectangle 1133" fill="#d6002b" d="M0 0h224.019v224.019H0z"/><g data-name="Groupe 588"><g data-name="Groupe 582"><g data-name="Groupe 581" fill="#fff"><path data-name="Tracé 471" d="M145.262 141.683l-1.205 4.236h-16.153v-.138l2-2.066c4.993-5.131 9.47-10.435 9.47-15.635 0-3.582-2.238-5.338-5.028-5.338-2.031 0-4.1 1-5.785 3.444l-.448-.207a9.988 9.988 0 018.954-5.545c4.132 0 7.783 2.239 7.783 6.854 0 4.925-4.546 8.747-12.914 15.084h2.273a74.748 74.748 0 0011.053-.689z"/><path data-name="Tracé 472" d="M147.87 133.659c0-8.507 4.064-13.225 10.5-13.225 5.993 0 10.538 4.305 10.538 12.674 0 8.506-4.132 13.224-10.572 13.224-5.955 0-10.466-4.304-10.466-12.673zm15.531-.138c0-7.438-1.584-12.6-5.1-12.6-3.478 0-4.924 5.1-4.924 12.295 0 7.473 1.584 12.638 5.1 12.638 3.478-.004 4.924-5.101 4.924-12.333z"/></g><path data-name="Rectangle 1134" fill="#001821" d="M127.459 152.551h40.445v2.835h-40.445z"/><path data-name="Tracé 473" d="M107.135 120.473h-.187l-8.567 19.93c-.311.709-.676 1.533-1.062 2.4a19.041 19.041 0 01-10.589 10.334 19.362 19.362 0 01-5.94.869l-.011-33.456h-7.4v34.8h22.4c-.277-2.689-.045-5.565 1.932-10.871 0 0 1.1-2.728 1.515-3.705l4.33-10.1 10.571 24.68h8.055z" fill="#fff"/></g><g data-name="Groupe 583" fill="#fff"><path data-name="Tracé 474" d="M105.538 75.143a3.914 3.914 0 00.828-2.808 4.782 4.782 0 00-.876-3.048 3.266 3.266 0 00-2.724-1.1 4.193 4.193 0 00-1.128.168v10.872a4.615 4.615 0 00.216 1.608 1.424 1.424 0 00.7.792 3.57 3.57 0 001.368.288 3.542 3.542 0 01.168 1.3q-1.224-.072-3.552-.072-2.592 0-3.744.072a4.867 4.867 0 01.12-1.3 2.542 2.542 0 001.02-.24 1.069 1.069 0 00.492-.66 4.989 4.989 0 00.144-1.38v-9.216a4.863 4.863 0 00-.144-1.368 1.079 1.079 0 00-.48-.648 2.67 2.67 0 00-1.008-.264 4.83 4.83 0 01-.144-1.3q1.32.072 3.456.072l2.112-.024q.624-.024 1.488-.024 3.048 0 4.4 1.308a4.6 4.6 0 011.356 3.468 6.293 6.293 0 01-.644 2.859 5.023 5.023 0 01-1.932 2.076 5.781 5.781 0 01-3.06.78 4.794 4.794 0 01-1.68-.24 3.9 3.9 0 01-.048-.48 1.986 1.986 0 01.144-.744 5.031 5.031 0 001.032.1 2.854 2.854 0 002.12-.847z"/><path data-name="Tracé 475" d="M121.532 74.267q-.062.924-.037 1.644a3.313 3.313 0 01-.792.191 6.643 6.643 0 01-.959.073 2.581 2.581 0 00-.3-1.368.9.9 0 00-.78-.384 1.212 1.212 0 00-.839.444 3.522 3.522 0 00-.721 1.164 4.1 4.1 0 00-.288 1.536v1.656a4.612 4.612 0 00.217 1.608 1.423 1.423 0 00.7.792 3.572 3.572 0 001.369.288 4.261 4.261 0 01.144 1.3q-1.178-.072-3.433-.072-2.52 0-3.72.072a4.552 4.552 0 01.144-1.3 2.452 2.452 0 001.009-.24 1.091 1.091 0 00.48-.66 5.028 5.028 0 00.144-1.38v-3.864a3.694 3.694 0 00-.12-1.068.955.955 0 00-.493-.564 2.8 2.8 0 00-1.14-.216 2.35 2.35 0 01.24-1.176 10.6 10.6 0 002.148-.276 8.459 8.459 0 001.692-.54q.624.24.624 1.2a6.218 6.218 0 01-.108 1.14c-.071.392-.155.789-.252 1.188q.048-.168.228-.648a4.125 4.125 0 01.349-.744 4.755 4.755 0 011.307-1.416 2.815 2.815 0 011.644-.528 2.708 2.708 0 011.7.576q-.098.648-.157 1.572z"/><path data-name="Tracé 476" d="M124.222 81.911a1.588 1.588 0 001.284-.456 2.9 2.9 0 00.324-1.632v-4.2a3.131 3.131 0 00-.12-.972.911.911 0 00-.5-.528 3.081 3.081 0 00-1.152-.2 2.35 2.35 0 01.24-1.176 10.868 10.868 0 002.16-.252 5.052 5.052 0 001.68-.564 1.081 1.081 0 01.648 1.152v6.744a2.99 2.99 0 00.312 1.632 1.386 1.386 0 001.152.456 4.368 4.368 0 01.144 1.3q-1.152-.072-3.144-.072-2.112 0-3.192.072a4.177 4.177 0 01.164-1.304zm1.572-12.636a1.439 1.439 0 01-.492-1.116 1.552 1.552 0 01.516-1.224 1.867 1.867 0 011.284-.456 1.916 1.916 0 011.332.444 1.552 1.552 0 01.492 1.212 1.435 1.435 0 01-.528 1.128 1.983 1.983 0 01-1.344.456 1.805 1.805 0 01-1.26-.444z"/><path data-name="Tracé 477" d="M144.72 83.159a25.15 25.15 0 00-1.248-.024h-1.3q-2.642 0-3.552.048a4.86 4.86 0 01.12-1.272 1.874 1.874 0 00.636-.156.366.366 0 00.2-.348 2.251 2.251 0 00-.456-1.08q-.312-.5-1.032-1.56l-.744 1.1a3.179 3.179 0 00-.7 1.512c0 .32.215.5.648.528a3.973 3.973 0 01.168 1.272q-.816-.05-2.5-.048-1.248 0-2.087.048a3.4 3.4 0 01.191-1.272 2.062 2.062 0 001.177-.48 9.17 9.17 0 001.44-1.776l1.44-2.016q-.936-1.416-1.824-2.592a8.8 8.8 0 00-1.164-1.356 1.667 1.667 0 00-.924-.348 3.408 3.408 0 01-.192-1.248q1.584.048 2.928.048 2.254 0 3.144-.048a5.527 5.527 0 01-.144 1.248 1.613 1.613 0 00-.636.132.345.345 0 00-.2.324 2.628 2.628 0 00.6 1.224l.912 1.272.84-1.3a3.062 3.062 0 00.552-1.224.311.311 0 00-.168-.288 1.521 1.521 0 00-.528-.144 3.853 3.853 0 01-.168-1.248q1.344.048 2.231.048t2.041-.048a4.819 4.819 0 01-.168 1.248 1.772 1.772 0 00-.924.324 5.95 5.95 0 00-1.044 1.236l-1.68 2.424q1.391 1.9 1.8 2.52a11.526 11.526 0 001.2 1.608 1.381 1.381 0 00.936.432 3.841 3.841 0 01.179 1.28z"/><path data-name="Tracé 478" d="M48.086 91.567a3.568 3.568 0 00-.464-2.16 2.353 2.353 0 00-1.744-.624 4.371 4.371 0 01-.16-1.376q1.76.1 3.872.1 1.023 0 1.968-.016t1.9-.08a4.371 4.371 0 01-.16 1.376 2.352 2.352 0 00-1.744.624 3.561 3.561 0 00-.464 2.16v13.5a3.557 3.557 0 00.464 2.16 2.343 2.343 0 001.744.624 4.376 4.376 0 01.16 1.376q-1.92-.094-3.872-.095-.929 0-1.984.015t-1.888.08a4.376 4.376 0 01.16-1.376 2.345 2.345 0 001.744-.624 3.564 3.564 0 00.464-2.16z"/><path data-name="Tracé 479" d="M70.997 105.07a3.7 3.7 0 00.465 2.225 1.741 1.741 0 001.424.559 2.862 2.862 0 01.128.609c.021.213.032.47.032.767q-.705-.064-1.6-.08t-1.889-.015q-.992 0-2.031.032t-1.777.063a4.37 4.37 0 01.161-1.376 2.143 2.143 0 001.68-.591 3.372 3.372 0 00.528-2.193v-4.863a6.627 6.627 0 00-.225-1.872 3.1 3.1 0 00-.624-1.2 2.252 2.252 0 00-.943-.64 3.54 3.54 0 00-1.185-.192 3.077 3.077 0 00-1.279.288 3.109 3.109 0 00-1.152.928 5.283 5.283 0 00-.848 1.648 7.918 7.918 0 00-.336 2.479v3.424a3.623 3.623 0 00.48 2.193 2.122 2.122 0 001.728.591 2.862 2.862 0 01.128.609c.021.213.031.47.031.767q-.671-.031-1.743-.063t-2.064-.032q-.993 0-2.049.015c-.7.011-1.291.037-1.759.08a4.346 4.346 0 01.16-1.376 2.12 2.12 0 001.727-.591 3.623 3.623 0 00.48-2.193v-6.336a5.358 5.358 0 00-.079-.991 1.361 1.361 0 00-.336-.688 1.631 1.631 0 00-.72-.416 5.111 5.111 0 00-1.265-.176 2.933 2.933 0 01.064-.64 1.733 1.733 0 01.225-.544 8.973 8.973 0 001.072-.144q.591-.111 1.183-.256t1.121-.32a6.972 6.972 0 00.912-.368.986.986 0 01.5.4 1.853 1.853 0 01.208 1.008q0 .384-.032.864a4.833 4.833 0 01-.192 1.023 3.725 3.725 0 00.192-.367 2.622 2.622 0 01.288-.465 4.137 4.137 0 01.7-.783 5.95 5.95 0 011.04-.736 6.674 6.674 0 011.312-.56 5.322 5.322 0 011.584-.224 5.542 5.542 0 011.728.272 3.858 3.858 0 011.471.88 4.158 4.158 0 011.009 1.6 7.187 7.187 0 01.367 2.464z"/><path data-name="Tracé 480" d="M90.341 105.07a3.7 3.7 0 00.465 2.225 1.74 1.74 0 001.423.559 2.8 2.8 0 01.128.609c.021.213.033.47.033.767q-.705-.064-1.6-.08t-1.888-.015q-.991 0-2.031.032t-1.777.063a4.376 4.376 0 01.16-1.376 2.143 2.143 0 001.68-.591 3.365 3.365 0 00.528-2.193v-4.863a6.631 6.631 0 00-.224-1.872 3.1 3.1 0 00-.624-1.2 2.249 2.249 0 00-.944-.64 3.53 3.53 0 00-1.184-.192 3.079 3.079 0 00-2.431 1.216 5.3 5.3 0 00-.849 1.648 7.92 7.92 0 00-.335 2.479v3.424a3.631 3.631 0 00.479 2.193 2.123 2.123 0 001.729.591 2.861 2.861 0 01.127.609c.021.213.032.47.032.767q-.672-.031-1.743-.063t-2.064-.032q-.993 0-2.049.015c-.7.011-1.291.037-1.76.08a4.341 4.341 0 01.161-1.376 2.121 2.121 0 001.727-.591 3.63 3.63 0 00.48-2.193v-6.336a5.446 5.446 0 00-.079-.991 1.361 1.361 0 00-.336-.688 1.635 1.635 0 00-.721-.416 5.1 5.1 0 00-1.264-.176 2.933 2.933 0 01.064-.64 1.73 1.73 0 01.224-.544 8.961 8.961 0 001.073-.144q.591-.111 1.183-.256t1.12-.32a6.914 6.914 0 00.912-.368.986.986 0 01.5.4 1.843 1.843 0 01.209 1.008c0 .256-.012.544-.033.864a4.711 4.711 0 01-.192 1.023 3.725 3.725 0 00.192-.367 2.68 2.68 0 01.288-.465 4.207 4.207 0 01.7-.783 5.96 5.96 0 011.041-.736 6.674 6.674 0 011.312-.56 5.312 5.312 0 011.584-.224 5.547 5.547 0 011.728.272 3.865 3.865 0 011.471.88 4.158 4.158 0 011.009 1.6 7.187 7.187 0 01.367 2.464z"/><path data-name="Tracé 481" d="M94.248 101.807a8.459 8.459 0 01.529-3.024 7.224 7.224 0 011.488-2.416 6.818 6.818 0 012.288-1.6 7.276 7.276 0 012.928-.576 8.034 8.034 0 013.039.544 6.205 6.205 0 012.273 1.552 6.926 6.926 0 011.424 2.416 9.3 9.3 0 01.5 3.1 8.6 8.6 0 01-.529 3.04 7.17 7.17 0 01-1.471 2.416 6.762 6.762 0 01-2.272 1.584 7.383 7.383 0 01-2.96.576 7.872 7.872 0 01-2.976-.544 6.448 6.448 0 01-2.288-1.536 6.763 6.763 0 01-1.456-2.4 9.1 9.1 0 01-.517-3.132zm3.233-.672a9.084 9.084 0 001.152 5.008 3.551 3.551 0 003.1 1.744 3.081 3.081 0 002.848-1.584 8.075 8.075 0 00.928-4.113 9.5 9.5 0 00-.352-2.671 7.012 7.012 0 00-.944-2.048 4.29 4.29 0 00-1.376-1.3 3.34 3.34 0 00-1.68-.448 3.023 3.023 0 00-2.769 1.5 7.462 7.462 0 00-.907 3.912z"/><path data-name="Tracé 482" d="M120.076 94.383q.639.064 1.44.08t1.536.016q.735 0 1.568-.016t1.408-.08a3.044 3.044 0 01-.288 1.376 2.335 2.335 0 00-.688.288 2.208 2.208 0 00-.592.592 7.039 7.039 0 00-.592 1.024q-.3.624-.688 1.584l-4.288 10.176a4.912 4.912 0 01-.784-.065 2.109 2.109 0 01-.688-.223q-.192-.449-.592-1.376c-.267-.618-.571-1.313-.912-2.08s-.7-1.569-1.088-2.4-.747-1.615-1.088-2.351-.646-1.387-.912-1.952-.454-.965-.56-1.2c-.213-.425-.4-.767-.544-1.023a2.959 2.959 0 00-.432-.592 1.155 1.155 0 00-.448-.288 2.6 2.6 0 00-.56-.112 4.052 4.052 0 01-.16-.672 5.845 5.845 0 01-.032-.7q1.344.1 3.36.1 1.023 0 2.1-.016t1.84-.08a3.639 3.639 0 01-.064.688 4.892 4.892 0 01-.16.624 8.661 8.661 0 00-1.264.176.992.992 0 00-.624.352.788.788 0 00-.064.639 6.144 6.144 0 00.384 1.04q.224.481.656 1.473t.96 2.208q.528 1.216 1.072 2.5.416 1.024.768 1.856.7-1.824 1.248-3.3.639-1.665 1.184-3.1a4.643 4.643 0 00.48-2.9 1.6 1.6 0 00-1.536-.912 2.745 2.745 0 01-.356-1.354z"/><path data-name="Tracé 483" d="M139.195 104.367a4.168 4.168 0 00.336 2.048q.336.512 1.488.512a7.388 7.388 0 01-.047.784 2.5 2.5 0 01-.177.72 14.266 14.266 0 00-1.776.4 10.664 10.664 0 00-1.616.592 1.248 1.248 0 01-.56-.481 1.953 1.953 0 01-.24-1.088q0-.479.032-.8c.021-.213.032-.4.032-.544a4.055 4.055 0 01-.368.832 3.938 3.938 0 01-.816.927 4.362 4.362 0 01-1.328.785 5.2 5.2 0 01-1.872.3 4.67 4.67 0 01-3.12-.895 3.119 3.119 0 01-1.04-2.5 3.574 3.574 0 01.913-2.544 6.91 6.91 0 012.208-1.569 11.956 11.956 0 012.688-.863q1.39-.271 2.383-.432 0-.993-.032-1.632a9.924 9.924 0 00-.1-1.073 2.407 2.407 0 00-.208-.719 3.518 3.518 0 00-.336-.544 2.49 2.49 0 00-2.048-.96 2.014 2.014 0 00-1.247.384 3.269 3.269 0 00-.849.944 4.035 4.035 0 00-.48 1.2 7.37 7.37 0 00-.176 1.184q-.353 0-.88-.048a2.317 2.317 0 01-.784-.176 15.882 15.882 0 00.032-1.776 9.544 9.544 0 00-.192-1.712 15.392 15.392 0 012.688-1.04 10.592 10.592 0 012.913-.4 4.616 4.616 0 011.855.336 4.756 4.756 0 011.376.912 3.821 3.821 0 01.672.9 4.37 4.37 0 01.4 1.136 10.913 10.913 0 01.208 1.488q.064.832.064 1.983zm-2.88-2.5q-.833.1-1.728.272a6.834 6.834 0 00-1.632.528 3.444 3.444 0 00-1.231.975 2.621 2.621 0 00-.5 1.681 2.282 2.282 0 00.576 1.728 1.857 1.857 0 001.312.544 2.572 2.572 0 001.072-.256 3.138 3.138 0 001.04-.8 4.24 4.24 0 00.784-1.393 6.132 6.132 0 00.3-2.063z"/><path data-name="Tracé 484" d="M144.356 94.798v-4.224a5.332 5.332 0 001.281-.512 6.548 6.548 0 001.12-.768.982.982 0 01.256.144.59.59 0 01.159.256 1.622 1.622 0 01.08.464q.016.288.016.8v3.84h4.128a3.671 3.671 0 01-.288 1.408 23.6 23.6 0 00-3.84.416v8a4.388 4.388 0 00.48 2.352 1.526 1.526 0 001.345.719 2.981 2.981 0 002.111-.767 1.917 1.917 0 01.48 1.055 4.155 4.155 0 01-1.567 1.025 5.42 5.42 0 01-2.049.416 3.69 3.69 0 01-2.816-.96 4.572 4.572 0 01-.9-3.168v-8.672a7.647 7.647 0 00-.991-.256 13.141 13.141 0 00-1.312-.16 3.517 3.517 0 01.064-.72 3.752 3.752 0 01.224-.688z"/><path data-name="Tracé 485" d="M159.396 105.07a3.953 3.953 0 00.432 2.193 1.681 1.681 0 001.456.591 4.1 4.1 0 01.128.752q.032.4.032.624-.832-.064-1.76-.08t-1.856-.015q-.929 0-1.9.015t-1.776.08c0-.212.011-.442.032-.687a3.419 3.419 0 01.128-.689 2.116 2.116 0 001.744-.591 3.732 3.732 0 00.464-2.193v-6.336a6.578 6.578 0 00-.064-.991 1.338 1.338 0 00-.32-.7 1.566 1.566 0 00-.736-.433 4.644 4.644 0 00-1.28-.143 2.933 2.933 0 01.064-.64 1.73 1.73 0 01.224-.544 6.517 6.517 0 00.96-.1q.607-.1 1.248-.24a10.042 10.042 0 001.216-.352 4.206 4.206 0 00.864-.4 1 1 0 01.5.384 1.54 1.54 0 01.208.9zm-3.584-16.351a1.935 1.935 0 013.28-1.408 1.937 1.937 0 01.528 1.408 1.779 1.779 0 01-.56 1.3 1.849 1.849 0 01-1.36.56 1.832 1.832 0 01-1.888-1.856z"/><path data-name="Tracé 486" d="M163.434 101.807a8.458 8.458 0 01.529-3.024 7.224 7.224 0 011.488-2.416 6.818 6.818 0 012.288-1.6 7.276 7.276 0 012.928-.576 8.034 8.034 0 013.039.544 6.205 6.205 0 012.273 1.552 6.926 6.926 0 011.424 2.416 9.3 9.3 0 01.5 3.1 8.572 8.572 0 01-.529 3.04 7.17 7.17 0 01-1.471 2.416 6.762 6.762 0 01-2.272 1.584 7.383 7.383 0 01-2.96.576 7.872 7.872 0 01-2.976-.544 6.449 6.449 0 01-2.288-1.536 6.764 6.764 0 01-1.456-2.4 9.1 9.1 0 01-.517-3.132zm3.233-.672a9.084 9.084 0 001.152 5.008 3.551 3.551 0 003.1 1.744 3.08 3.08 0 002.848-1.584 8.075 8.075 0 00.928-4.113 9.5 9.5 0 00-.352-2.671 7.011 7.011 0 00-.944-2.048 4.29 4.29 0 00-1.376-1.3 3.34 3.34 0 00-1.68-.448 3.023 3.023 0 00-2.769 1.5 7.462 7.462 0 00-.912 3.912z"/><path data-name="Tracé 487" d="M194.609 105.07a3.713 3.713 0 00.464 2.225 1.743 1.743 0 001.424.559 2.863 2.863 0 01.128.609c.021.213.032.47.032.767q-.705-.064-1.6-.08t-1.888-.015q-.992 0-2.032.032t-1.776.063a4.376 4.376 0 01.16-1.376 2.143 2.143 0 001.68-.591 3.371 3.371 0 00.528-2.193v-4.863a6.668 6.668 0 00-.224-1.872 3.131 3.131 0 00-.624-1.2 2.255 2.255 0 00-.944-.64 3.534 3.534 0 00-1.184-.192 3.078 3.078 0 00-1.28.288 3.117 3.117 0 00-1.152.928 5.283 5.283 0 00-.848 1.648 7.918 7.918 0 00-.336 2.479v3.424a3.63 3.63 0 00.48 2.193 2.122 2.122 0 001.728.591 2.8 2.8 0 01.128.609c.021.213.032.47.032.767q-.672-.031-1.744-.063t-2.064-.032q-.991 0-2.048.015t-1.76.08a4.375 4.375 0 01.16-1.376 2.122 2.122 0 001.728-.591 3.63 3.63 0 00.48-2.193v-6.336a5.35 5.35 0 00-.08-.991 1.353 1.353 0 00-.336-.688 1.626 1.626 0 00-.72-.416 5.109 5.109 0 00-1.264-.176 2.933 2.933 0 01.064-.64 1.708 1.708 0 01.224-.544 8.947 8.947 0 001.072-.144q.592-.111 1.184-.256t1.12-.32a6.973 6.973 0 00.912-.368.986.986 0 01.5.4 1.853 1.853 0 01.208 1.008q0 .384-.032.864a4.833 4.833 0 01-.192 1.023 3.728 3.728 0 00.192-.367 2.681 2.681 0 01.288-.465 4.172 4.172 0 01.7-.783 5.951 5.951 0 011.04-.736 6.7 6.7 0 011.312-.56 5.322 5.322 0 011.584-.224 5.537 5.537 0 011.728.272 3.869 3.869 0 011.472.88 4.157 4.157 0 011.008 1.6 7.161 7.161 0 01.368 2.464z"/></g><g data-name="Groupe 585"><g data-name="Groupe 584" fill="#fff"><path data-name="Tracé 488" d="M30.262 102.905a3.335 3.335 0 01.75.074c.15.04.315.086.495.136v-1.83a3.1 3.1 0 00-.03-.465.628.628 0 00-.15-.33.729.729 0 00-.345-.2 2.158 2.158 0 00-.6-.067 1.385 1.385 0 01.03-.3.81.81 0 01.1-.255 3.064 3.064 0 00.45-.045q.285-.045.585-.112a4.924 4.924 0 00.57-.165 2.012 2.012 0 00.4-.188.472.472 0 01.233.18.724.724 0 01.1.42v8.25a1.117 1.117 0 00.195.682 1.14 1.14 0 00.81.248c0 .11 0 .217-.015.323a1.311 1.311 0 01-.075.322 2.97 2.97 0 00-.412.037c-.165.026-.33.058-.495.1a3.489 3.489 0 00-.473.15 2 2 0 00-.36.18.564.564 0 01-.255-.2.9.9 0 01-.12-.54c0-.18 0-.36.015-.541.01-.129.03-.289.06-.479a1.7 1.7 0 01-.135.27q-.135.255-.21.375a2.37 2.37 0 01-.292.36 2.281 2.281 0 01-.458.36 3.062 3.062 0 01-.6.278 2.17 2.17 0 01-.705.112 2.687 2.687 0 01-2.063-.795 3.636 3.636 0 01-.742-2.535 4.059 4.059 0 01.27-1.478 3.683 3.683 0 01.758-1.215 3.53 3.53 0 011.177-.817 3.8 3.8 0 011.537-.3zm1.08 4.665a4.61 4.61 0 00.165-1.1v-2.34a3.716 3.716 0 00-.45-.33 1.649 1.649 0 00-.87-.21 2.28 2.28 0 00-.69.12 1.76 1.76 0 00-.705.45 2.624 2.624 0 00-.555.893 3.989 3.989 0 00-.225 1.461 3.722 3.722 0 00.173 1.216 2.584 2.584 0 00.42.795 1.547 1.547 0 00.539.435 1.318 1.318 0 00.548.135 1.539 1.539 0 00.653-.15 1.575 1.575 0 00.585-.5 2.616 2.616 0 00.409-.875z"/><path data-name="Tracé 489" d="M37.31 106.564a31.1 31.1 0 00-.96.046 4.548 4.548 0 00.076.645 3.145 3.145 0 00.352.974 1.992 1.992 0 00.668.706 1.959 1.959 0 001.079.27 2.323 2.323 0 00.975-.218 2.459 2.459 0 00.855-.652.865.865 0 01.225.21.725.725 0 01.136.255 3.047 3.047 0 01-1.185.96 3.715 3.715 0 01-1.486.285 3.221 3.221 0 01-1.4-.285 2.875 2.875 0 01-1-.765 3.175 3.175 0 01-.593-1.133 4.848 4.848 0 01-.194-1.387 4.243 4.243 0 01.217-1.365 3.681 3.681 0 01.615-1.14 2.87 2.87 0 01.975-.781 2.908 2.908 0 011.3-.284 2.841 2.841 0 011.245.247 2.37 2.37 0 01.84.668 3.013 3.013 0 01.5.983 5.382 5.382 0 01.217 1.207 1.178 1.178 0 01-.224.509h-.765c-.341 0-.723 0-1.148.008s-.86.018-1.32.037zm-.855-1.634a5.232 5.232 0 00-.12.915h2.881a3.142 3.142 0 00-.361-1.6 1.124 1.124 0 00-1.02-.615 1.4 1.4 0 00-.54.112 1.185 1.185 0 00-.487.406 2.354 2.354 0 00-.353.782z"/></g></g><g data-name="Groupe 587"><g data-name="Groupe 586" fill="#fff"><path data-name="Tracé 490" d="M37.933 89.56a3.123 3.123 0 00-.029-.465.64.64 0 00-.15-.33.739.739 0 00-.345-.2 2.2 2.2 0 00-.6-.067 1.338 1.338 0 01.031-.3.766.766 0 01.1-.255 2.915 2.915 0 00.449-.045c.19-.029.385-.067.585-.112a4.532 4.532 0 00.571-.165 1.9 1.9 0 00.4-.187.469.469 0 01.233.179.728.728 0 01.1.421v8.25a1.858 1.858 0 00.2 1.028.791.791 0 00.682.277 1.76 1.76 0 01.06.352c.011.125.016.223.016.292-.261-.019-.536-.032-.826-.037s-.58-.007-.869-.007-.588 0-.893.007-.582.018-.832.037c0-.1 0-.207.015-.322a1.6 1.6 0 01.06-.322 1 1 0 00.817-.277 1.752 1.752 0 00.217-1.028z"/><path data-name="Tracé 491" d="M42.346 87.459c.34.131.51.49.51 1.08a3.346 3.346 0 01-.285 1.433 5.544 5.544 0 01-.825 1.237 1.154 1.154 0 01-.337-.053.612.612 0 01-.263-.142q.2-.27.308-.457a2.25 2.25 0 00.172-.345 1.476 1.476 0 00.083-.316 2.361 2.361 0 00.022-.336.7.7 0 00-.705-.75c0-.1.008-.243.023-.428a1.713 1.713 0 01.1-.473 5.285 5.285 0 00.645-.18 2.6 2.6 0 00.552-.27z"/></g></g></g></g></svg>
