<svg xmlns="http://www.w3.org/2000/svg" viewBox="0 0 481.758 259.058"><g data-name="Groupe 671"><g data-name="Groupe 662" stroke-dasharray="0 5" stroke="#fff" stroke-linecap="round" stroke-linejoin="round" stroke-miterlimit="10" stroke-width="3" fill="none"><path data-name="Ligne 19" d="M432.533 1.5h-81.918"/><path data-name="Ligne 20" d="M385.891 115.527h-52.158"/><g data-name="Groupe 661"><path data-name="Ligne 21" d="M456.636 6.912H342.689"/><path data-name="Ligne 22" d="M466.823 12.318h-99.218"/><path data-name="Ligne 23" d="M476.605 17.724H348.061"/><path data-name="Ligne 24" d="M480.259 23.135H340.771"/><path data-name="Ligne 25" d="M426.286 28.541H325.67"/><path data-name="Ligne 26" d="M394.12 33.947h-68.45"/><path data-name="Ligne 27" d="M391.434 39.359H325.67"/><path data-name="Ligne 28" d="M402.95 44.765h-77.28"/><path data-name="Ligne 29" d="M399.629 50.176H332.33"/><path data-name="Ligne 30" d="M397.166 55.582h-46.551"/><path data-name="Ligne 31" d="M386.292 104.71H288.94"/><path data-name="Ligne 32" d="M386.292 98.463H288.94"/><path data-name="Ligne 33" d="M402.229 92.215h-93.412"/><path data-name="Ligne 34" d="M409.198 85.967H308.817"/><path data-name="Ligne 35" d="M440.545 79.72h-157.79"/><path data-name="Ligne 36" d="M440.545 73.466h-157.79"/><path data-name="Ligne 37" d="M440.545 67.218H287.222"/><path data-name="Ligne 38" d="M426.234 60.971H308.817"/><path data-name="Ligne 39" d="M384.282 110.122h-67.11"/><path data-name="Ligne 40" d="M370.749 120.934h-37.016"/></g></g><g data-name="Groupe 664" stroke="#fff" stroke-linecap="round" stroke-linejoin="round" stroke-miterlimit="10" stroke-width="3" fill="none"><path data-name="Ligne 41" stroke-dasharray="0 8" d="M151.272 137.563H96.28"/><path data-name="Ligne 42" stroke-dasharray="0 8" d="M104.234 251.585H39.341"/><g data-name="Groupe 663" stroke-dasharray="0 5"><path data-name="Ligne 43" d="M175.376 142.969H74.262"/><path data-name="Ligne 44" d="M185.563 148.375H86.345"/><path data-name="Ligne 45" d="M195.35 153.786H66.8"/><path data-name="Ligne 46" d="M199.003 159.192H59.51"/><path data-name="Ligne 47" d="M145.025 164.598H44.415"/><path data-name="Ligne 48" d="M112.865 170.01h-68.45"/><path data-name="Ligne 49" d="M110.173 175.416H44.415"/><path data-name="Ligne 50" d="M121.689 180.827H44.415"/><path data-name="Ligne 51" d="M118.373 186.233H51.069"/><path data-name="Ligne 52" d="M115.911 191.639H51.069"/><path data-name="Ligne 53" d="M105.037 240.767H7.685"/><path data-name="Ligne 54" d="M105.037 234.52H7.685"/><path data-name="Ligne 55" d="M120.968 228.272H27.556"/><path data-name="Ligne 56" d="M127.943 222.024H27.556"/><path data-name="Ligne 57" d="M159.29 215.777H1.5"/><path data-name="Ligne 58" d="M159.29 209.529H1.5"/><path data-name="Ligne 59" d="M159.29 203.281H5.961"/><path data-name="Ligne 60" d="M144.979 197.033H27.556"/><path data-name="Ligne 61" d="M103.027 246.179h-67.11"/><path data-name="Ligne 62" d="M89.494 256.996H66.8"/></g></g><g data-name="Groupe 688"><g data-name="Groupe 687"><g data-name="Groupe 686"><path data-name="Tracé 585" d="M216.127 92.512h-27.03v-9.924a35.1 35.1 0 00-35.012-35.1V20.455a62 62 0 0162.042 62.133z" fill="#daa45c"/><path data-name="Tracé 586" d="M119.05 92.513H92.02v-9.924a62.22 62.22 0 0162.173-62.127v27.029a35.159 35.159 0 00-35.144 35.1z" fill="#2b193c"/><path data-name="Tracé 587" d="M189.235 92.513h-27.03v-9.735a8.018 8.018 0 00-8.12-8.269v-27.03a34.827 34.827 0 0125.008 10.405 35.2 35.2 0 0110.136 24.885v9.741z" fill="#fff"/><path data-name="Tracé 588" d="M145.804 92.513h-27.029v-9.735a35.4 35.4 0 0135.419-35.3v27.029a8.339 8.339 0 00-8.389 8.269v9.735z" fill="#dfd4db"/><path data-name="Rectangle 1147" fill="#daa45c" d="M128.997 204.764h117.687v27.029H128.997z"/><path data-name="Rectangle 1148" fill="#fff" d="M83.213 231.817h220.055v27.029H83.213z"/><g data-name="Groupe 684"><path data-name="Tracé 589" d="M343.543 33.724a72.207 72.207 0 00-112.487 59.871h27.029a45.373 45.373 0 0170.328-37.475 45.177 45.177 0 0119.923 37.475h27.029a72.2 72.2 0 00-31.822-59.871z" fill="#fff"/><path data-name="Tracé 590" d="M303.159 258.829V231.8a45.226 45.226 0 0045.16-45.183v-21.669h27.029v21.669a72.283 72.283 0 01-72.189 72.212z" fill="#2b193c"/><path data-name="Tracé 591" d="M303.468 258.829a72.374 72.374 0 01-51.092-20.839 70.886 70.886 0 01-21.337-50.9v-22.4h27.029v22.4a44.067 44.067 0 0013.268 31.639 45.536 45.536 0 0032.137 13.075v27.029z" fill="#fff"/><path data-name="Rectangle 1149" fill="#dfd4db" d="M348.341 93.601h27.029v71.347h-27.029z"/><path data-name="Rectangle 1150" fill="#dfd4db" d="M231.027 93.601h27.029v71.09h-27.029z"/></g><g data-name="Groupe 685"><path data-name="Rectangle 1151" fill="#2b193c" d="M321.283 93.6h27.029v71.347h-27.029z"/><path data-name="Rectangle 1152" fill="#fff" d="M258.096 93.503h27.029v71.313h-27.029z"/></g><path data-name="Tracé 592" d="M303.101 231.788a44.958 44.958 0 01-45.005-44.8v-22.43h27.029v22.425a17.9 17.9 0 0017.976 17.775c9.855 0 18.182-8.137 18.182-17.775v-22.036h27.033v22.036c0 24.705-20.287 44.805-45.215 44.805z" fill="#daa45c"/><path data-name="Tracé 593" d="M348.307 93.601h-27.029a18.059 18.059 0 10-36.117-.092h-27.03a45.088 45.088 0 1190.176.092z" fill="#daa45c"/></g></g><path data-name="Tracé 594" d="M137.237 231.788h-27.029v-9.214c0-26.44 4.518-45.314 27.608-63.536l16.744 21.217c-13.6 10.732-17.323 19.831-17.323 42.319z" fill="#dfd4db"/><path data-name="Tracé 595" d="M154.514 180.294L138.485 160c32.5-25.455 50.686-36.919 50.686-67.488H216.2c0 18.285-6.087 34.588-18.606 49.85-10.342 12.61-23.857 23.049-36.925 33.151q-3.074 2.379-6.155 4.781z" fill="#fff"/><path data-name="Tracé 596" d="M138.491 159.988l-16.624-21.268c3.968-3.138 7.628-5.95 11.161-8.676 22.185-17.065 29.2-23.152 29.188-37.52l27.029-.029c.029 28.375-16.653 41.208-39.737 58.972-3.463 2.663-7.191 5.492-11.017 8.521z" fill="#daa45c"/><path data-name="Tracé 597" d="M110.19 259.059H83.161v-36.485c0-32.733 6.471-58.176 38.671-83.825l16.67 21.268c-12 9.558-19.356 18.812-23.525 29.389-4.2 10.663-4.782 22.248-4.782 33.168v36.485z" fill="#2b193c"/></g></g></svg>
