<svg xmlns="http://www.w3.org/2000/svg" viewBox="0 0 1650.36 388.144"><g data-name="Groupe 1015"><g data-name="Groupe 709" stroke-dasharray="0 8" stroke="#fff" stroke-linecap="round" stroke-width="3" fill="none"><path data-name="Ligne 19" stroke-linejoin="round" stroke-miterlimit="10" d="M1584.25 56.72h-226.293"/><path data-name="Ligne 20" stroke-linejoin="round" stroke-miterlimit="10" d="M1648.86 371.711h-475"/><g data-name="Groupe 661"><path data-name="Tracé 741" d="M1571.026 71.669h-234.963"/><path data-name="Tracé 742" d="M1530.692 86.602h-125.8"/><path data-name="Tracé 743" d="M1528.36 101.536h-177.458"/><path data-name="Tracé 744" d="M1557.026 116.485h-106.262"/><path data-name="Ligne 25" stroke-linejoin="round" stroke-miterlimit="10" d="M1566.991 131.418H1383.86"/><path data-name="Ligne 26" stroke-linejoin="round" stroke-miterlimit="10" d="M1478.135 146.351h-189.086"/><path data-name="Ligne 27" stroke-linejoin="round" stroke-miterlimit="10" d="M1470.716 161.3h-181.667"/><path data-name="Ligne 28" stroke-linejoin="round" stroke-miterlimit="10" d="M1502.528 176.234h-213.479"/><path data-name="Ligne 29" stroke-linejoin="round" stroke-miterlimit="10" d="M1493.353 191.183h-185.907"/><path data-name="Ligne 30" stroke-linejoin="round" stroke-miterlimit="10" d="M1486.551 206.116H1226.86"/><path data-name="Ligne 31" stroke-linejoin="round" stroke-miterlimit="10" d="M1456.51 341.828h-429.65"/><path data-name="Ligne 32" stroke-linejoin="round" stroke-miterlimit="10" d="M1456.51 324.57H932.86"/><path data-name="Ligne 33" stroke-linejoin="round" stroke-miterlimit="10" d="M1500.535 307.311H1046.86"/><path data-name="Ligne 34" stroke-linejoin="round" stroke-miterlimit="10" d="M1519.787 290.052h-277.294"/><path data-name="Tracé 747" d="M1561.026 272.794H1170.5"/><path data-name="Tracé 746" d="M1448.033 255.519H1170.5"/><path data-name="Tracé 745" d="M1513.36 238.26h-425.5"/><path data-name="Ligne 38" stroke-linejoin="round" stroke-miterlimit="10" d="M1477.849 221.002h-324.356"/><path data-name="Ligne 39" stroke-linejoin="round" stroke-miterlimit="10" d="M1450.958 356.777H1087.86"/><path data-name="Ligne 40" stroke-linejoin="round" stroke-miterlimit="10" d="M1413.577 386.644h-102.255"/></g></g><g data-name="Groupe 754" stroke-dasharray="0 8" stroke="#fff" stroke-linecap="round" stroke-width="3" fill="none"><path data-name="Ligne 19" stroke-linejoin="round" stroke-miterlimit="10" d="M415.25 1.5H188.957"/><path data-name="Ligne 20" stroke-linejoin="round" stroke-miterlimit="10" d="M286.403 316.491H142.322"/><g data-name="Groupe 661"><path data-name="Ligne 21" stroke-linejoin="round" stroke-miterlimit="10" d="M481.832 16.449H167.063"/><path data-name="Ligne 22" stroke-linejoin="round" stroke-miterlimit="10" d="M837.86 31.382H235.892"/><path data-name="Ligne 23" stroke-linejoin="round" stroke-miterlimit="10" d="M642.993 46.316H287.901"/><path data-name="Ligne 24" stroke-linejoin="round" stroke-miterlimit="10" d="M748.86 61.265H161.764"/><path data-name="Ligne 25" stroke-linejoin="round" stroke-miterlimit="10" d="M552.86 76.198H120.049"/><path data-name="Tracé 697" d="M428.532 91.131H120.049"/><path data-name="Ligne 27" stroke-linejoin="round" stroke-miterlimit="10" d="M301.716 106.08H120.049"/><path data-name="Ligne 28" stroke-linejoin="round" stroke-miterlimit="10" d="M333.528 121.014H120.049"/><path data-name="Ligne 29" stroke-linejoin="round" stroke-miterlimit="10" d="M324.353 135.963H138.446"/><path data-name="Ligne 30" stroke-linejoin="round" stroke-miterlimit="10" d="M317.551 150.896H188.957"/><path data-name="Ligne 31" stroke-linejoin="round" stroke-miterlimit="10" d="M287.51 286.608H18.585"/><path data-name="Ligne 32" stroke-linejoin="round" stroke-miterlimit="10" d="M287.51 269.35H18.585"/><path data-name="Ligne 33" stroke-linejoin="round" stroke-miterlimit="10" d="M331.535 252.091H73.493"/><path data-name="Ligne 34" stroke-linejoin="round" stroke-miterlimit="10" d="M350.787 234.832H73.493"/><path data-name="Ligne 35" stroke-linejoin="round" stroke-miterlimit="10" d="M481.86 217.574H1.5"/><path data-name="Ligne 36" stroke-linejoin="round" stroke-miterlimit="10" d="M552.86 200.299H1.5"/><path data-name="Ligne 37" stroke-linejoin="round" stroke-miterlimit="10" d="M437.381 183.04H13.839"/><path data-name="Ligne 38" stroke-linejoin="round" stroke-miterlimit="10" d="M397.849 165.782H73.493"/><path data-name="Ligne 39" stroke-linejoin="round" stroke-miterlimit="10" d="M281.958 301.557H96.573"/><path data-name="Ligne 40" stroke-linejoin="round" stroke-miterlimit="10" d="M244.577 331.424H142.322"/></g></g><g data-name="Groupe 998" stroke="#e50d41" stroke-width="2"><g data-name="Groupe 850" transform="translate(610.729 29.043)" fill="none" stroke-miterlimit="10"><circle data-name="Ellipse 308" cx="24.979" cy="24.979" r="24.979" transform="translate(101.874 137.274)"/><path data-name="Tracé 691" d="M196.074 169.57v-14.633h-16.9A53.153 53.153 0 00178 149l15.609-6.462-5.594-13.52-15.607 6.459a52.71 52.71 0 00-3.385-5.051l11.95-11.95-10.348-10.348-11.95 11.95a53.522 53.522 0 00-5.025-3.369l6.47-15.6-13.52-5.602-6.47 15.607a52.532 52.532 0 00-5.964-1.184v-16.9h-14.63v16.9a52.551 52.551 0 00-5.932 1.176L107.142 95.5l-13.52 5.594 6.459 15.607a52.708 52.708 0 00-5.051 3.385l-11.95-11.95-10.348 10.345 11.95 11.95a52.949 52.949 0 00-3.367 5.022l-15.6-6.467-5.609 13.514 15.607 6.473a53 53 0 00-1.184 5.964h-16.9v14.633h16.9a53.144 53.144 0 001.171 5.93l-15.6 6.462 5.594 13.52 15.606-6.46a52.756 52.756 0 003.385 5.054l-11.95 11.95 10.345 10.348 11.95-11.953a52.478 52.478 0 005.022 3.369l-6.467 15.6L107.1 229l6.47-15.607a51.938 51.938 0 005.964 1.184v16.9h14.633v-16.9a51.948 51.948 0 005.933-1.177l6.459 15.612 13.52-5.594-6.457-15.607a52.57 52.57 0 005.051-3.388l11.95 11.953 10.348-10.348-11.95-11.95a52.993 52.993 0 003.367-5.025l15.6 6.47L193.6 182l-15.609-6.47a52.537 52.537 0 001.187-5.964z"/></g><path data-name="Tracé 692" d="M875.33 128.217l2.442-8.515-5.62-1.612a36.142 36.142 0 00-2.205-19.287l5.123-2.838-4.295-7.748-5.123 2.838a36.144 36.144 0 00-15.187-12.087l1.612-5.624-8.515-2.441-1.613 5.623a36.144 36.144 0 00-19.284 2.203l-2.84-5.121-7.748 4.294 2.84 5.122a36.142 36.142 0 00-12.09 15.188l-5.623-1.613-2.442 8.515 5.624 1.612a36.129 36.129 0 002.204 19.285l-5.123 2.84 4.295 7.748 5.121-2.84a36.14 36.14 0 0015.188 12.09l-1.612 5.624 8.514 2.441 1.613-5.623a36.127 36.127 0 0019.286-2.205l2.84 5.124 7.747-4.295-2.84-5.123a36.129 36.129 0 0012.09-15.186z" fill="none" stroke-miterlimit="10"/><g data-name="Groupe 853" transform="rotate(16 -35.485 2133.338)" fill="none" stroke-miterlimit="10"><circle data-name="Ellipse 309" cx="18.951" cy="18.951" r="18.951" transform="translate(71.65 107.051)"/><path data-name="Tracé 692" d="M120.469 129.159v-6.313H116.3a25.76 25.76 0 00-5.3-12.781l2.952-2.951-4.464-4.464-2.952 2.951a25.76 25.76 0 00-12.779-5.3v-4.17h-6.313v4.17a25.76 25.76 0 00-12.779 5.3l-2.952-2.951-4.464 4.464 2.952 2.951a25.759 25.759 0 00-5.3 12.781h-4.17v6.313H64.9a25.75 25.75 0 005.3 12.779l-2.952 2.952 4.464 4.464 2.951-2.952a25.758 25.758 0 0012.781 5.3v4.17h6.313V151.7a25.748 25.748 0 0012.779-5.3l2.952 2.952 4.464-4.464-2.952-2.95a25.75 25.75 0 005.3-12.779z"/></g><g data-name="Groupe 856" transform="rotate(16 352.418 3370.374)" fill="none" stroke-miterlimit="10"><circle data-name="Ellipse 309" cx="18.951" cy="18.951" r="18.951" transform="translate(71.65 107.051)"/><path data-name="Tracé 692" d="M120.469 129.159v-6.313H116.3a25.76 25.76 0 00-5.3-12.781l2.952-2.951-4.464-4.464-2.952 2.951a25.76 25.76 0 00-12.779-5.3v-4.17h-6.313v4.17a25.76 25.76 0 00-12.779 5.3l-2.952-2.951-4.464 4.464 2.952 2.951a25.759 25.759 0 00-5.3 12.781h-4.17v6.313H64.9a25.75 25.75 0 005.3 12.779l-2.952 2.952 4.464 4.464 2.951-2.952a25.758 25.758 0 0012.781 5.3v4.17h6.313V151.7a25.748 25.748 0 0012.779-5.3l2.952 2.952 4.464-4.464-2.952-2.95a25.75 25.75 0 005.3-12.779z"/></g><g data-name="Groupe 852" transform="rotate(-13 785.59 -3144.583)" fill="none" stroke-miterlimit="10"><circle data-name="Ellipse 310" cx="39.89" cy="39.89" r="39.89" transform="translate(86.809 122.209)"/><path data-name="Tracé 693" d="M195.766 169.4v-14.6h-16.86a52.417 52.417 0 00-10.131-24.452l11.925-11.924-10.326-10.324-11.923 11.923A52.429 52.429 0 00134 109.892v-16.86h-14.6v16.86a52.417 52.417 0 00-24.452 10.131L83.023 108.1 72.7 118.424l11.923 11.923A52.417 52.417 0 0074.491 154.8h-16.86v14.6h16.86a52.429 52.429 0 0010.131 24.452L72.7 205.775 83.023 216.1l11.923-11.926A52.362 52.362 0 00119.4 214.3v16.863H134V214.3a52.373 52.373 0 0024.452-10.131l11.922 11.931 10.326-10.325-11.923-11.923a52.429 52.429 0 0010.129-24.452z"/><path data-name="Tracé 694" d="M195.766 169.4v-14.6h-16.86a52.417 52.417 0 00-10.131-24.452l11.925-11.924-10.326-10.324-11.923 11.923A52.429 52.429 0 00134 109.892v-16.86h-14.6v16.86a52.417 52.417 0 00-24.452 10.131L83.023 108.1 72.7 118.424l11.923 11.923A52.417 52.417 0 0074.491 154.8h-16.86v14.6h16.86a52.429 52.429 0 0010.131 24.452L72.7 205.775 83.023 216.1l11.923-11.926A52.362 52.362 0 00119.4 214.3v16.863H134V214.3a52.373 52.373 0 0024.452-10.131l11.922 11.931 10.326-10.325-11.923-11.923a52.429 52.429 0 0010.129-24.452z"/><circle data-name="Ellipse 311" cx="15.89" cy="15.89" r="15.89" transform="translate(110.809 146.209)"/></g><g data-name="Groupe 854" transform="translate(508.434 15.274)" fill="none" stroke-miterlimit="10"><circle data-name="Ellipse 310" cx="26.162" cy="26.162" r="26.162" transform="translate(76.767 112.168)"/><path data-name="Tracé 693" d="M148.229 143.119v-9.576h-11.058a34.379 34.379 0 00-6.644-16.037l7.82-7.82-6.772-6.772-7.82 7.82a34.386 34.386 0 00-16.037-6.644V93.032h-9.576v11.058a34.378 34.378 0 00-16.042 6.644l-7.82-7.82-6.772 6.772 7.82 7.82a34.378 34.378 0 00-6.644 16.037H57.631v9.576h11.058a34.386 34.386 0 006.644 16.037l-7.82 7.82 6.772 6.772 7.82-7.822a34.342 34.342 0 0016.037 6.644v11.06h9.576v-11.06a34.349 34.349 0 0016.037-6.644l7.82 7.822 6.772-6.772-7.82-7.82a34.386 34.386 0 006.644-16.037z"/><path data-name="Tracé 694" d="M148.229 143.119v-9.576h-11.058a34.379 34.379 0 00-6.644-16.037l7.82-7.82-6.772-6.772-7.82 7.82a34.386 34.386 0 00-16.037-6.644V93.032h-9.576v11.058a34.378 34.378 0 00-16.042 6.644l-7.82-7.82-6.772 6.772 7.82 7.82a34.378 34.378 0 00-6.644 16.037H57.631v9.576h11.058a34.386 34.386 0 006.644 16.037l-7.82 7.82 6.772 6.772 7.82-7.822a34.342 34.342 0 0016.037 6.644v11.06h9.576v-11.06a34.349 34.349 0 0016.037-6.644l7.82 7.822 6.772-6.772-7.82-7.82a34.386 34.386 0 006.644-16.037z"/><circle data-name="Ellipse 311" cx="10.422" cy="10.422" r="10.422" transform="translate(92.508 127.909)"/></g><path data-name="Ligne 88" fill="none" d="M806.86 128l59-32"/><path data-name="Ligne 89" fill="none" d="M819.86 83l32 57"/><path data-name="Tracé 740" d="M839.73 100.336a12.559 12.559 0 11-15.535 8.61 12.559 12.559 0 0115.534-8.61z" fill="#f3efef"/><g data-name="Groupe 855" fill="none"><path data-name="Tracé 695" d="M992.881 113.046l2.479-11.3-12.891-5.94c0-.048.008-.095.008-.143 0-.44-.053-.865-.067-1.3l12.856-5.584-2.646-11.264-14.228.215c-.206-.434-.4-.873-.625-1.3l9.166-10.568-7.253-9.017-12.715 6.327c-.373-.3-.77-.575-1.155-.865l3.709-13.514-10.437-5-8.747 11.216c-.471-.112-.932-.25-1.41-.345l-2.486-13.744h-11.573l-3.037 13.867c-.878.189-1.736.423-2.593.667l-8.526-11.1-10.286 5.3 3.652 13.71c-.373.307-.711.652-1.076.972l-12.5-6.335-6.986 9.225 9.242 10.816c-.206.44-.442.863-.631 1.311l-13.954-.311-2.313 11.336 12.995 5.758c0 .482.051.956.072 1.433l-12.78 5.775 2.808 11.226 14.222-.423c.215.434.4.882.629 1.307l-8.99 10.683 7.383 8.909 12.639-6.523c.377.295.762.577 1.149.859l-3.509 13.567 10.509 4.845 8.573-11.332c.469.105.943.2 1.419.286l2.694 13.731 11.57-.171 2.837-13.931c.469-.107.93-.234 1.393-.358l8.371 11.233 10.362-5.15-3.458-13.786a39.1 39.1 0 001.109-.926l12.393 6.51 7.118-9.122-9.084-10.953c.21-.431.431-.859.627-1.3z" stroke-miterlimit="10"/><g data-name="Ellipse 312" transform="translate(918.36 73.5)"><circle cx="22" cy="22" r="22" stroke="none"/><circle cx="22" cy="22" r="21"/></g></g><g data-name="Groupe 857" transform="translate(900.546 132.268)" fill="none" stroke-miterlimit="10"><circle data-name="Ellipse 313" cx="20.725" cy="20.725" r="20.725" transform="translate(72.721 108.116)"/><path data-name="Tracé 696" d="M123.321 129.665l5.653-3.358-.246-2.615-6.231-1.907a29.46 29.46 0 00-.883-2.971l4.049-5.16-1.173-2.35-6.5.47a30.341 30.341 0 00-1.9-2.439l1.918-6.286-1.941-1.767-5.887 2.782a29.969 29.969 0 00-2.656-1.6l-.479-6.543-2.449-.948-4.488 4.727a29.539 29.539 0 00-3.045-.528l-2.813-5.938h-2.626l-2.482 6.025a30.031 30.031 0 00-3.211.64l-4.782-4.484-2.443.962-.1 6.519a30.078 30.078 0 00-2.6 1.672l-6.094-2.468-1.932 1.778L70.238 110a29.794 29.794 0 00-1.821 2.5l-6.567-.1-1.159 2.357L65 119.641a29.68 29.68 0 00-.8 3l-6.154 2.277-.23 2.616 5.785 3a29.672 29.672 0 00.333 3.077l-4.919 4.346.729 2.524 6.478.712a30.053 30.053 0 001.424 2.747l-3.02 5.831 1.591 2.09 6.3-1.675a30.187 30.187 0 002.315 2.045l-.712 6.533 2.237 1.374 5.265-3.831a29.37 29.37 0 002.91 1.082l1.689 6.333 2.583.475 3.533-5.483c.37.014.737.028 1.109.028.665 0 1.325-.029 1.979-.072l3.872 5.311 2.58-.49 1.315-6.381a29.562 29.562 0 002.871-1.159l5.52 3.55 2.23-1.388-1.079-6.432a29.905 29.905 0 002.252-2.112l6.439 1.32 1.578-2.1-3.322-5.6a29.6 29.6 0 001.348-2.8l6.465-1.09.715-2.526-5.127-4.032a30.105 30.105 0 00.239-3.076z"/><circle data-name="Ellipse 314" cx="8.725" cy="8.725" r="8.725" transform="translate(84.721 120.116)"/></g></g></g></svg>
